<svg width="25" height="25" viewBox="0 0 25 25" fill="none" xmlns="http://www.w3.org/2000/svg">
<rect width="25" height="25" rx="4" fill="#8374F2"/>
<path d="M20.936 16.5174C21.0174 16.8895 21.0581 17.3488 21.0581 17.8953C20.6047 17.8605 19.4709 17.843 17.657 17.843C16.7035 17.843 15.8081 17.8605 14.9709 17.8953C14.9709 17.4884 15.0233 17.0349 15.1279 16.5349C15.5465 16.4884 15.8256 16.3953 15.9651 16.2558C16.1163 16.1163 16.1919 15.843 16.1919 15.436C16.1919 15.1221 16.1686 14.7616 16.1221 14.3547L15.6163 9.55814L12.3547 17.8605C12.0872 17.9535 11.6512 18 11.0465 18L7.36628 9.61047L6.94767 13.5523C6.88953 14.1337 6.86047 14.5756 6.86047 14.8779C6.86047 15.5058 6.94767 15.936 7.12209 16.1686C7.29651 16.3895 7.5814 16.5116 7.97674 16.5349C8.06977 16.8953 8.11628 17.3488 8.11628 17.8953C7.76744 17.8605 7.12791 17.843 6.19767 17.843C5.43023 17.843 4.69767 17.8605 4 17.8953C4 17.3488 4.04651 16.8953 4.13953 16.5349C4.45349 16.5116 4.70349 16.4128 4.88953 16.2384C5.07558 16.064 5.22674 15.7733 5.34302 15.3663C5.47093 14.9477 5.56977 14.3663 5.63953 13.6221L6.02326 9.36628C6.05814 9.06395 6.07558 8.80233 6.07558 8.5814C6.07558 8.09302 5.99419 7.76744 5.8314 7.60465C5.6686 7.44186 5.37209 7.36047 4.94186 7.36047C4.84884 7.04651 4.80233 6.59302 4.80233 6C5.32558 6.03488 6.13953 6.05232 7.24419 6.05232C8.47674 6.05232 9.26744 6.03488 9.61628 6L12.7733 13.5349L15.4942 6C16.1221 6.03488 16.9593 6.05232 18.0058 6.05232C19.0523 6.05232 19.8372 6.03488 20.3605 6C20.3605 6.59302 20.314 7.04651 20.2209 7.36047C19.7907 7.36047 19.4884 7.45349 19.314 7.63953C19.1395 7.82558 19.0523 8.15116 19.0523 8.61628C19.0523 8.82558 19.0698 9.0814 19.1047 9.38372L19.593 14.1628C19.6628 14.8721 19.7384 15.3837 19.8198 15.6977C19.9128 16 20.0349 16.2035 20.186 16.3081C20.3488 16.4128 20.5988 16.4826 20.936 16.5174Z" fill="white"/>
</svg>
