<svg width="38" height="39" viewBox="0 0 38 39" fill="none" xmlns="http://www.w3.org/2000/svg">
<circle cx="19.0841" cy="19.3673" r="18.0431" stroke="#8273F1" stroke-width="1.5"/>
<path d="M19.6148 14.6057C16.7006 14.6057 14.3379 16.9618 14.3379 19.8678C14.3379 22.7738 16.7006 25.1299 19.6148 25.1299C22.529 25.1299 24.8918 22.7738 24.8918 19.8678C24.8918 16.9618 22.529 14.6057 19.6148 14.6057ZM19.6148 23.1566C17.7969 23.1566 16.3167 21.6806 16.3167 19.8678C16.3167 18.0537 17.7969 16.579 19.6148 16.579C21.4327 16.579 22.9129 18.0537 22.9129 19.8678C22.9129 21.6806 21.4327 23.1566 19.6148 23.1566Z" fill="#8273F1"/>
<path d="M23.5726 9.34375H15.6572C12.0148 9.34375 9.06104 12.2892 9.06104 15.9213V23.8144C9.06104 27.4466 12.0148 30.392 15.6572 30.392H23.5726C27.215 30.392 30.1688 27.4466 30.1688 23.8144V15.9213C30.1688 12.2892 27.215 9.34375 23.5726 9.34375ZM28.1899 23.8144C28.1899 26.3534 26.1187 28.4187 23.5726 28.4187H15.6572C13.1111 28.4187 11.0399 26.3534 11.0399 23.8144V15.9213C11.0399 13.3824 13.1111 11.317 15.6572 11.317H23.5726C26.1187 11.317 28.1899 13.3824 28.1899 15.9213V23.8144Z" fill="#8273F1"/>
<path d="M25.2876 14.9121C25.676 14.9121 25.9908 14.5982 25.9908 14.2109C25.9908 13.8237 25.676 13.5098 25.2876 13.5098C24.8993 13.5098 24.5845 13.8237 24.5845 14.2109C24.5845 14.5982 24.8993 14.9121 25.2876 14.9121Z" fill="#8273F1"/>
</svg>
