<svg width="39" height="39" viewBox="0 0 39 39" fill="none" xmlns="http://www.w3.org/2000/svg">
<circle cx="19.4977" cy="19.3673" r="18.0431" stroke="#8273F1" stroke-width="1.5"/>
<path fill-rule="evenodd" clip-rule="evenodd" d="M28.1157 12.3766L29.4562 12.5331L28.8536 13.7407C28.5598 14.3296 28.2656 14.9185 27.9712 15.5074C27.9363 15.6321 27.8749 15.7415 27.7842 15.8838C27.7463 15.9433 27.6167 16.1325 27.6107 16.1416C27.5765 16.1929 27.5512 16.2334 27.533 16.2658V18.5289C27.533 24.32 21.9285 28 16.6358 28C15.5528 28 14.73 27.9481 13.7878 27.7425C12.2372 27.4041 11.0832 26.7315 10.5552 25.556L10.0116 24.3457L11.3327 24.2242C12.5279 24.1143 13.5642 23.8866 14.36 23.5817C12.1752 23.2304 10.9509 22.2708 10.9509 20.4688V19.5213H11.8984C12.1066 19.5213 12.2943 19.5044 12.4621 19.4734C10.8224 18.493 10.0012 16.9203 10.0012 14.7389C10.001 14.6459 10.001 14.6459 10.0004 14.5465C9.99426 13.447 10.0533 12.8595 10.3543 12.1097C10.5472 11.6291 10.8261 11.1843 11.2013 10.7766L11.9163 10L12.6115 10.7944C14.9023 13.4125 17.1668 15.0008 19.4789 15.193C19.4888 12.7772 21.3146 10.9489 23.7428 10.9489C24.8748 10.9489 25.9017 11.3786 26.7086 12.1534C27.1503 12.2442 27.6193 12.3186 28.1157 12.3766Z" fill="#8273F1"/>
</svg>
