<svg width="99" height="100" viewBox="0 0 99 100" fill="none" xmlns="http://www.w3.org/2000/svg">
<path fill-rule="evenodd" clip-rule="evenodd" d="M98.4215 52.4996C98.4296 52.3333 98.4369 52.1668 98.4433 52.0001C98.4681 51.3578 98.4807 50.7124 98.4807 50.0641C98.4807 49.4157 98.4681 48.7703 98.4433 48.1281C98.4369 47.9613 98.4296 47.7948 98.4215 47.6285C98.4134 47.4619 98.4044 47.2954 98.3947 47.1292C97.8476 47.1558 97.4229 47.6182 97.4441 48.1667C97.4684 48.7961 97.4807 49.4286 97.4807 50.0641C97.4807 50.6995 97.4684 51.3321 97.4441 51.9614C97.4229 52.51 97.8476 52.9724 98.3947 52.9989C98.4044 52.8327 98.4134 52.6662 98.4215 52.4996ZM98.0265 56.7801C97.4847 56.7005 96.9786 57.072 96.8934 57.6143C96.6961 58.8701 96.4503 60.1097 96.158 61.3313C96.0303 61.8651 96.3567 62.4013 96.8879 62.5341C96.93 62.3729 96.9713 62.2114 97.0117 62.0496C97.0521 61.8881 97.0918 61.7262 97.1306 61.564C97.4289 60.3169 97.6798 59.0514 97.8813 57.7695C97.9072 57.605 97.9322 57.4402 97.9564 57.2752C97.9806 57.1104 98.0039 56.9454 98.0265 56.7801ZM95.7863 66.1701C95.2707 65.9856 94.7016 66.2506 94.5116 66.7655C94.0727 67.9547 93.5882 69.122 93.0604 70.2651C92.8303 70.7634 93.0449 71.3533 93.5398 71.5879C93.6127 71.4381 93.6849 71.2878 93.7563 71.1372C93.8277 70.9866 93.8983 70.8357 93.9682 70.6843C94.5071 69.5174 95.0017 68.3258 95.4497 67.1117C95.5074 66.9554 95.5643 66.7988 95.6204 66.6418C95.6765 66.4849 95.7318 66.3277 95.7863 66.1701ZM91.7456 74.9377C91.2761 74.6557 90.6661 74.804 90.3788 75.2718C89.7168 76.3499 89.0135 77.4 88.2712 78.42C87.9482 78.8638 88.0435 79.4844 88.4831 79.811C88.5839 79.6783 88.684 79.545 88.7835 79.4112C88.8829 79.2775 88.9816 79.1432 89.0797 79.0085C89.8374 77.9674 90.5552 76.8955 91.231 75.7951C91.3182 75.6531 91.4047 75.5106 91.4904 75.3677C91.5762 75.2248 91.6613 75.0815 91.7456 74.9377ZM86.0705 82.7475C85.6647 82.3796 85.0375 82.4065 84.6648 82.8095C83.807 83.737 82.9132 84.6307 81.9857 85.4885C81.5827 85.8612 81.5559 86.4885 81.9237 86.8942C82.0484 86.7835 82.1724 86.6722 82.2959 86.5603C82.4194 86.4484 82.5424 86.3358 82.6647 86.2227C83.6113 85.3472 84.5235 84.4351 85.3989 83.4884C85.5121 83.3661 85.6247 83.2432 85.7366 83.1197C85.8485 82.9962 85.9598 82.8721 86.0705 82.7475ZM78.9873 89.3069C78.6606 88.8673 78.0401 88.7719 77.5963 89.0949C76.5763 89.8372 75.5262 90.5405 74.4481 91.2026C73.9803 91.4898 73.832 92.0998 74.1139 92.5693C74.2577 92.485 74.4011 92.3999 74.544 92.3142C74.6869 92.2284 74.8294 92.1419 74.9714 92.0547C76.0718 91.3789 77.1437 90.6611 78.1847 89.9034C78.3195 89.8054 78.4538 89.7066 78.5875 89.6072C78.7213 89.5077 78.8545 89.4076 78.9873 89.3069ZM70.7641 94.3635C70.5296 93.8686 69.9397 93.654 69.4413 93.8841C68.2982 94.412 67.131 94.8964 65.9418 95.3353C65.4268 95.5253 65.1619 96.0944 65.3463 96.6101C65.5039 96.5555 65.6612 96.5002 65.818 96.4442C65.975 96.388 66.1317 96.3311 66.288 96.2734C67.5021 95.8254 68.6937 95.3308 69.8606 94.792C70.012 94.7221 70.1629 94.6514 70.3134 94.58C70.4641 94.5086 70.6143 94.4364 70.7641 94.3635ZM61.7104 97.7117C61.5776 97.1804 61.0414 96.854 60.5075 96.9817C59.286 97.274 58.0463 97.5198 56.7905 97.7171C56.2483 97.8024 55.8768 98.3084 55.9564 98.8502C56.1217 98.8277 56.2867 98.8043 56.4515 98.7801C56.6165 98.7559 56.7813 98.7309 56.9458 98.705C58.2277 98.5036 59.4932 98.2526 60.7402 97.9543C60.9024 97.9155 61.0643 97.8759 61.2259 97.8355C61.3877 97.795 61.5492 97.7537 61.7104 97.7117ZM52.1752 99.2184C52.1486 98.6713 51.6862 98.2466 51.1377 98.2678C50.5083 98.2921 49.8758 98.3044 49.2403 98.3044C48.6049 98.3044 47.9724 98.2921 47.343 98.2678C46.7944 98.2466 46.332 98.6713 46.3055 99.2184C46.4717 99.2282 46.6382 99.2371 46.8048 99.2452C46.9711 99.2533 47.1376 99.2606 47.3043 99.267C47.9466 99.2919 48.592 99.3044 49.2403 99.3044C49.8887 99.3044 50.5341 99.2919 51.1764 99.267C51.3431 99.2606 51.5096 99.2533 51.6759 99.2452C51.8425 99.2371 52.009 99.2282 52.1752 99.2184ZM42.5243 98.8502C42.6039 98.3084 42.2324 97.8024 41.6901 97.7171C40.4343 97.5198 39.1947 97.274 37.9731 96.9817C37.4393 96.854 36.9031 97.1804 36.7703 97.7117C36.9315 97.7537 37.093 97.795 37.2548 97.8355C37.4163 97.8759 37.5782 97.9155 37.7404 97.9543C38.9875 98.2526 40.253 98.5036 41.5349 98.705C41.6994 98.7309 41.8642 98.7559 42.0292 98.7801C42.194 98.8043 42.359 98.8277 42.5243 98.8502ZM33.1343 96.6101C33.3188 96.0944 33.0538 95.5253 32.5389 95.3353C31.3497 94.8964 30.1824 94.412 29.0393 93.8841C28.541 93.654 27.9511 93.8687 27.7165 94.3635C27.8663 94.4364 28.0166 94.5086 28.1672 94.58C28.3178 94.6514 28.4687 94.7221 28.6201 94.792C29.787 95.3308 30.9786 95.8254 32.1927 96.2734C32.349 96.3311 32.5056 96.388 32.6626 96.4442C32.8195 96.5002 32.9767 96.5555 33.1343 96.6101ZM24.3667 92.5693C24.6487 92.0998 24.5004 91.4898 24.0326 91.2026C22.9545 90.5405 21.9044 89.8372 20.8844 89.0949C20.4406 88.7719 19.82 88.8673 19.4934 89.3069C19.6261 89.4076 19.7594 89.5077 19.8932 89.6072C20.0269 89.7066 20.1612 89.8054 20.296 89.9034C21.337 90.6611 22.4089 91.3789 23.5093 92.0547C23.6513 92.1419 23.7938 92.2284 23.9367 92.3142C24.0796 92.3999 24.2229 92.485 24.3667 92.5693ZM16.5569 86.8942C16.9248 86.4885 16.8979 85.8612 16.4949 85.4885C15.5674 84.6307 14.6737 83.737 13.8159 82.8095C13.4432 82.4065 12.8159 82.3796 12.4102 82.7475C12.5209 82.8721 12.6322 82.9962 12.7441 83.1197C12.856 83.2432 12.9686 83.3661 13.0817 83.4884C13.9572 84.4351 14.8693 85.3472 15.816 86.2227C15.9383 86.3358 16.0612 86.4484 16.1847 86.5603C16.3082 86.6722 16.4323 86.7835 16.5569 86.8942ZM9.99755 79.811C10.4371 79.4844 10.5325 78.8638 10.2095 78.42C9.4672 77.4 8.76392 76.3499 8.10185 75.2718C7.81462 74.804 7.20458 74.6557 6.73509 74.9377C6.81943 75.0815 6.90447 75.2248 6.99022 75.3677C7.07601 75.5106 7.16251 75.6531 7.2497 75.7951C7.92549 76.8956 8.64332 77.9674 9.40096 79.0085C9.49905 79.1432 9.59781 79.2775 9.69722 79.4112C9.79667 79.545 9.89678 79.6783 9.99755 79.811ZM4.94091 71.5879C5.43575 71.3533 5.65041 70.7634 5.4203 70.2651C4.89244 69.122 4.408 67.9547 3.96911 66.7655C3.77908 66.2506 3.20996 65.9856 2.69435 66.1701C2.74888 66.3277 2.80417 66.4849 2.86025 66.6418C2.91638 66.7988 2.97328 66.9554 3.03096 67.1117C3.47902 68.3258 3.97356 69.5174 4.51243 70.6843C4.58232 70.8357 4.65297 70.9866 4.72436 71.1372C4.7958 71.2878 4.86799 71.4381 4.94091 71.5879ZM1.59274 62.5341C2.12401 62.4013 2.45038 61.8651 2.32267 61.3313C2.03041 60.1097 1.78461 58.8701 1.58726 57.6143C1.50204 57.072 0.995996 56.7005 0.454188 56.7801C0.47673 56.9454 0.500092 57.1104 0.52427 57.2752C0.548489 57.4402 0.573529 57.605 0.599381 57.7695C0.800838 59.0514 1.05175 60.3169 1.35012 61.564C1.38892 61.7262 1.42854 61.8881 1.46895 62.0496C1.50941 62.2114 1.55068 62.3729 1.59274 62.5341ZM0.0860159 52.9989C0.633065 52.9724 1.05782 52.51 1.03662 51.9614C1.01228 51.3321 1 50.6995 1 50.0641C1 49.4286 1.01228 48.7961 1.03662 48.1667C1.05782 47.6182 0.633064 47.1558 0.0860157 47.1292C0.0762456 47.2954 0.0672995 47.4619 0.0591824 47.6285C0.0510826 47.7948 0.0438078 47.9613 0.0373618 48.1281C0.0125303 48.7703 0 49.4157 0 50.0641C0 50.7124 0.0125303 51.3578 0.037362 52.0001C0.0438079 52.1668 0.0510831 52.3333 0.0591827 52.4996C0.0673 52.6663 0.0762457 52.8327 0.0860159 52.9989ZM0.454188 43.348C0.995996 43.4277 1.50204 43.0561 1.58726 42.5139C1.78461 41.2581 2.03041 40.0184 2.32267 38.7969C2.45038 38.2631 2.12401 37.7268 1.59274 37.5941C1.55068 37.7552 1.50941 37.9167 1.46895 38.0785C1.42854 38.2401 1.38892 38.402 1.35012 38.5642C1.05175 39.8112 0.800838 41.0767 0.599381 42.3586C0.573529 42.5231 0.54849 42.6879 0.524271 42.853C0.500092 43.0177 0.47673 43.1827 0.454188 43.348ZM2.69435 33.9581C3.20996 34.1425 3.77908 33.8776 3.96911 33.3626C4.40801 32.1734 4.89244 31.0062 5.4203 29.8631C5.65042 29.3647 5.43575 28.7748 4.94091 28.5403C4.86799 28.6901 4.79581 28.8403 4.72436 28.991C4.65298 29.1415 4.58233 29.2924 4.51243 29.4438C3.97356 30.6107 3.47902 31.8023 3.03096 33.0164C2.97329 33.1727 2.91638 33.3294 2.86025 33.4864C2.80418 33.6432 2.74888 33.8005 2.69435 33.9581ZM6.73509 25.1905C7.20458 25.4724 7.81462 25.3241 8.10186 24.8563C8.76392 23.7782 9.4672 22.7281 10.2095 21.7081C10.5325 21.2643 10.4371 20.6438 9.99755 20.3171C9.89678 20.4499 9.79667 20.5831 9.69722 20.7169C9.59781 20.8506 9.49905 20.9849 9.40096 21.1197C8.64332 22.1607 7.92549 23.2326 7.2497 24.3331C7.16251 24.475 7.07601 24.6175 6.99022 24.7605C6.90447 24.9033 6.81943 25.0467 6.73509 25.1905ZM12.4102 17.3807C12.8159 17.7485 13.4432 17.7217 13.8159 17.3187C14.6737 16.3912 15.5674 15.4974 16.4949 14.6396C16.8979 14.2669 16.9248 13.6397 16.5569 13.2339C16.4323 13.3446 16.3082 13.4559 16.1847 13.5678C16.0612 13.6798 15.9383 13.7923 15.816 13.9055C14.8693 14.7809 13.9572 15.6931 13.0817 16.6397C12.9686 16.762 12.856 16.885 12.7441 17.0085C12.6322 17.132 12.5209 17.256 12.4102 17.3807ZM19.4934 10.8213C19.82 11.2609 20.4406 11.3562 20.8844 11.0332C21.9044 10.2909 22.9545 9.58765 24.0326 8.92558C24.5004 8.63835 24.6487 8.02831 24.3667 7.55882C24.2229 7.64316 24.0796 7.7282 23.9367 7.81395C23.7938 7.89974 23.6513 7.98624 23.5093 8.07343C22.4089 8.74922 21.337 9.46705 20.296 10.2247C20.1612 10.3228 20.0269 10.4215 19.8932 10.521C19.7594 10.6204 19.6261 10.7205 19.4934 10.8213ZM27.7165 5.76464C27.9511 6.25948 28.541 6.47414 29.0393 6.24403C30.1824 5.71617 31.3497 5.23173 32.5389 4.79284C33.0538 4.60281 33.3188 4.03369 33.1343 3.51808C32.9767 3.57261 32.8195 3.62791 32.6627 3.68398C32.5056 3.74011 32.349 3.79702 32.1927 3.85469C30.9786 4.30275 29.787 4.79729 28.6201 5.33616C28.4687 5.40606 28.3178 5.4767 28.1672 5.54809C28.0166 5.61953 27.8663 5.69172 27.7165 5.76464ZM36.7703 2.41647C36.9031 2.94774 37.4393 3.27412 37.9731 3.1464C39.1947 2.85414 40.4343 2.60834 41.6901 2.41099C42.2324 2.32577 42.6039 1.81973 42.5243 1.27792C42.359 1.30046 42.194 1.32382 42.0292 1.348C41.8642 1.37222 41.6994 1.39726 41.5349 1.42311C40.253 1.62457 38.9875 1.87549 37.7404 2.17385C37.5782 2.21266 37.4163 2.25227 37.2548 2.29268C37.093 2.33314 36.9315 2.37441 36.7703 2.41647ZM46.3055 0.909746C46.332 1.4568 46.7944 1.88155 47.343 1.86035C47.9723 1.83601 48.6049 1.82373 49.2403 1.82373C49.8758 1.82373 50.5083 1.83601 51.1377 1.86035C51.6862 1.88155 52.1486 1.45679 52.1752 0.909746C52.009 0.899976 51.8425 0.89103 51.6759 0.882913C51.5096 0.874813 51.3431 0.867538 51.1763 0.861092C50.5341 0.836261 49.8887 0.82373 49.2403 0.82373C48.592 0.82373 47.9466 0.836261 47.3043 0.861093C47.1376 0.867538 46.9711 0.874814 46.8048 0.882913C46.6381 0.89103 46.4717 0.899976 46.3055 0.909746ZM55.9564 1.27792C55.8768 1.81973 56.2483 2.32577 56.7905 2.41099C58.0463 2.60834 59.286 2.85414 60.5075 3.1464C61.0414 3.27411 61.5776 2.94774 61.7104 2.41647C61.5492 2.37441 61.3877 2.33314 61.2259 2.29268C61.0643 2.25227 60.9024 2.21265 60.7402 2.17385C59.4932 1.87549 58.2277 1.62457 56.9458 1.42311C56.7813 1.39726 56.6165 1.37222 56.4515 1.348C56.2867 1.32382 56.1217 1.30046 55.9564 1.27792ZM65.3463 3.51808C65.1619 4.03369 65.4268 4.60281 65.9418 4.79284C67.131 5.23174 68.2982 5.71617 69.4414 6.24403C69.9397 6.47415 70.5296 6.25949 70.7641 5.76464C70.6143 5.69172 70.4641 5.61953 70.3135 5.54809C70.1629 5.47671 70.012 5.40606 69.8606 5.33616C68.6937 4.79729 67.5021 4.30275 66.288 3.85469C66.1317 3.79702 65.9751 3.74011 65.818 3.68398C65.6612 3.62791 65.5039 3.57261 65.3463 3.51808ZM74.1139 7.55882C73.832 8.02831 73.9803 8.63835 74.4481 8.92559C75.5262 9.58765 76.5763 10.2909 77.5963 11.0332C78.0401 11.3562 78.6606 11.2609 78.9873 10.8213C78.8545 10.7205 78.7213 10.6204 78.5875 10.521C78.4538 10.4215 78.3195 10.3228 78.1847 10.2247C77.1437 9.46705 76.0718 8.74922 74.9714 8.07343C74.8294 7.98624 74.6869 7.89974 74.544 7.81395C74.4011 7.7282 74.2577 7.64316 74.1139 7.55882ZM81.9237 13.2339C81.5559 13.6397 81.5827 14.2669 81.9857 14.6396C82.9132 15.4974 83.807 16.3912 84.6648 17.3187C85.0375 17.7217 85.6647 17.7485 86.0705 17.3807C85.9598 17.256 85.8485 17.132 85.7366 17.0085C85.6246 16.885 85.5121 16.762 85.3989 16.6397C84.5235 15.6931 83.6113 14.7809 82.6647 13.9055C82.5424 13.7923 82.4194 13.6798 82.2959 13.5678C82.1724 13.4559 82.0484 13.3446 81.9237 13.2339ZM88.4831 20.3171C88.0435 20.6438 87.9482 21.2643 88.2712 21.7081C89.0135 22.7281 89.7168 23.7782 90.3788 24.8563C90.6661 25.3241 91.2761 25.4724 91.7456 25.1905C91.6612 25.0467 91.5762 24.9033 91.4905 24.7605C91.4047 24.6175 91.3182 24.475 91.231 24.3331C90.5552 23.2326 89.8374 22.1607 89.0797 21.1197C88.9816 20.9849 88.8829 20.8506 88.7834 20.7169C88.684 20.5831 88.5839 20.4499 88.4831 20.3171ZM93.5398 28.5403C93.0449 28.7748 92.8303 29.3647 93.0604 29.8631C93.5882 31.0062 94.0727 32.1734 94.5116 33.3626C94.7016 33.8776 95.2707 34.1425 95.7863 33.9581C95.7318 33.8005 95.6765 33.6432 95.6204 33.4864C95.5643 33.3294 95.5074 33.1727 95.4497 33.0164C95.0017 31.8023 94.5071 30.6107 93.9682 29.4438C93.8983 29.2924 93.8277 29.1415 93.7563 28.991C93.6849 28.8403 93.6127 28.6901 93.5398 28.5403ZM98.0265 43.348C98.0039 43.1827 97.9806 43.0177 97.9564 42.853C97.9322 42.6879 97.9072 42.5231 97.8813 42.3586C97.6798 41.0767 97.4289 39.8112 97.1306 38.5642C97.0917 38.402 97.0521 38.2401 97.0117 38.0785C96.9713 37.9167 96.93 37.7552 96.8879 37.5941C96.3567 37.7268 96.0303 38.2631 96.158 38.7969C96.4503 40.0184 96.6961 41.2581 96.8934 42.5139C96.9786 43.0561 97.4847 43.4277 98.0265 43.348Z" fill="#9584FE"/>
</svg>
