<svg width="19" height="19" viewBox="0 0 19 19" fill="none" xmlns="http://www.w3.org/2000/svg">
<path fill-rule="evenodd" clip-rule="evenodd" d="M8.50031 6.14657C8.97001 5.51359 9.13844 4.84649 8.60722 4.25764C7.41512 2.58956 6.6134 1.55802 6.11052 1.06126C5.15448 0.116852 3.58179 0.244598 2.75379 1.06045C2.30906 1.49866 2.15851 1.64914 1.70187 2.11295C-0.841664 4.65785 0.709514 10.0377 4.83311 14.1653C8.95577 18.292 14.3351 19.844 16.884 17.2938C17.3053 16.8875 17.6621 16.5306 17.9435 16.2332C18.7549 15.3756 18.8781 13.8722 17.9381 12.8956C17.4562 12.3949 16.4726 11.6319 14.7343 10.3885C14.2019 9.91242 13.5707 10.0156 12.992 10.3953C12.7136 10.5779 12.511 10.7626 12.1285 11.1456L11.4338 11.8406C11.3423 11.9321 10.0999 11.31 8.89395 10.1028C7.6873 8.89497 7.06555 7.65253 7.15662 7.56147L7.85176 6.86595C7.97312 6.74447 8.03115 6.68565 8.10556 6.60744C8.26059 6.44451 8.38895 6.29664 8.50031 6.14657ZM12.7148 13.1229L13.4096 12.4278C13.672 12.1651 14.0769 12.1479 14.3771 12.3663C15.59 13.2486 16.3144 13.8231 16.6324 14.1535C16.8487 14.3782 16.8151 14.7882 16.6271 14.987C16.3669 15.262 16.0288 15.6002 15.614 16.0003C13.9658 17.6492 9.62352 16.3964 6.11437 12.8838C2.60413 9.37007 1.35191 5.0271 2.98766 3.39045C3.44245 2.92855 3.58655 2.78453 4.02492 2.35258C4.18929 2.19062 4.63701 2.15425 4.83696 2.35177C5.20153 2.71191 5.8596 3.54829 6.81726 4.87342C6.9247 5.02209 6.91912 5.22461 6.79268 5.3575C6.73166 5.42163 6.68083 5.47315 6.5697 5.58439L5.87525 6.27923C4.69385 7.46053 5.69997 9.47106 7.61189 11.3849C9.52251 13.2974 11.5338 14.3046 12.7148 13.1229Z" fill="white"/>
</svg>
