<svg width="359" height="135" viewBox="0 0 359 135" fill="none" xmlns="http://www.w3.org/2000/svg">
<path fill-rule="evenodd" clip-rule="evenodd" d="M9.99999 134.76C9.46763 134.76 8.94499 134.719 8.43513 134.639C8.26981 134.613 8.10582 134.583 7.94329 134.549C7.77945 134.514 7.61707 134.476 7.45628 134.434C7.56424 133.915 8.06143 133.568 8.59038 133.651C9.04907 133.723 9.51981 133.76 9.99999 133.76H11.9917C12.544 133.76 12.9917 134.208 12.9917 134.76H9.99999ZM22.9502 134.76C22.9502 134.208 22.5025 133.76 21.9502 133.76H17.9669C17.4146 133.76 16.9669 134.208 16.9669 134.76H22.9502ZM32.9088 134.76C32.9088 134.208 32.4611 133.76 31.9088 133.76H27.9254C27.3731 133.76 26.9254 134.208 26.9254 134.76H32.9088ZM42.8673 134.76C42.8673 134.208 42.4196 133.76 41.8673 133.76H37.8839C37.3316 133.76 36.8839 134.208 36.8839 134.76H42.8673ZM52.8258 134.76C52.8258 134.208 52.3781 133.76 51.8258 133.76H47.8424C47.2901 133.76 46.8424 134.208 46.8424 134.76H52.8258ZM62.7844 134.76C62.7844 134.208 62.3367 133.76 61.7844 133.76H57.801C57.2487 133.76 56.801 134.208 56.801 134.76H62.7844ZM72.7429 134.76C72.7429 134.208 72.2952 133.76 71.7429 133.76H67.7595C67.2072 133.76 66.7595 134.208 66.7595 134.76H72.7429ZM82.7014 134.76C82.7014 134.208 82.2537 133.76 81.7014 133.76H77.718C77.1657 133.76 76.718 134.208 76.718 134.76H82.7014ZM92.6599 134.76C92.6599 134.208 92.2122 133.76 91.6599 133.76H87.6766C87.1243 133.76 86.6766 134.208 86.6766 134.76H92.6599ZM102.618 134.76C102.618 134.208 102.171 133.76 101.618 133.76H97.635C97.0828 133.76 96.635 134.208 96.635 134.76H102.618ZM112.577 134.76C112.577 134.208 112.129 133.76 111.577 133.76H107.594C107.041 133.76 106.594 134.208 106.594 134.76H112.577ZM122.536 134.76C122.536 134.208 122.088 133.76 121.536 133.76H117.552C117 133.76 116.552 134.208 116.552 134.76H122.536ZM132.494 134.76C132.494 134.208 132.046 133.76 131.494 133.76H127.511C126.958 133.76 126.511 134.208 126.511 134.76H132.494ZM142.453 134.76C142.453 134.208 142.005 133.76 141.453 133.76H137.469C136.917 133.76 136.469 134.208 136.469 134.76H142.453ZM152.411 134.76C152.411 134.208 151.963 133.76 151.411 133.76H147.428C146.875 133.76 146.428 134.208 146.428 134.76H152.411ZM162.37 134.76C162.37 134.208 161.922 133.76 161.37 133.76H157.386C156.834 133.76 156.386 134.208 156.386 134.76H162.37ZM172.328 134.76C172.328 134.208 171.88 133.76 171.328 133.76H167.345C166.792 133.76 166.345 134.208 166.345 134.76H172.328ZM182.287 134.76C182.287 134.208 181.839 133.76 181.287 133.76H177.303C176.751 133.76 176.303 134.208 176.303 134.76H182.287ZM192.245 134.76C192.245 134.208 191.798 133.76 191.245 133.76H187.262C186.71 133.76 186.262 134.208 186.262 134.76H192.245ZM202.204 134.76C202.204 134.208 201.756 133.76 201.204 133.76H197.22C196.668 133.76 196.22 134.208 196.22 134.76H202.204ZM212.162 134.76C212.162 134.208 211.715 133.76 211.162 133.76H207.179C206.627 133.76 206.179 134.208 206.179 134.76H212.162ZM222.121 134.76C222.121 134.208 221.673 133.76 221.121 133.76H217.137C216.585 133.76 216.137 134.208 216.137 134.76H222.121ZM232.079 134.76C232.079 134.208 231.632 133.76 231.079 133.76H227.096C226.544 133.76 226.096 134.208 226.096 134.76H232.079ZM242.038 134.76C242.038 134.208 241.59 133.76 241.038 133.76H237.054C236.502 133.76 236.054 134.208 236.054 134.76H242.038ZM251.996 134.76C251.996 134.208 251.549 133.76 250.996 133.76H247.013C246.461 133.76 246.013 134.208 246.013 134.76H251.996ZM261.955 134.76C261.955 134.208 261.507 133.76 260.955 133.76H256.971C256.419 133.76 255.972 134.208 255.972 134.76H261.955ZM271.913 134.76C271.913 134.208 271.466 133.76 270.913 133.76H266.93C266.378 133.76 265.93 134.208 265.93 134.76H271.913ZM281.872 134.76C281.872 134.208 281.424 133.76 280.872 133.76H276.889C276.336 133.76 275.889 134.208 275.889 134.76H281.872ZM291.831 134.76C291.831 134.208 291.383 133.76 290.831 133.76H286.847C286.295 133.76 285.847 134.208 285.847 134.76H291.831ZM301.789 134.76C301.789 134.208 301.341 133.76 300.789 133.76H296.806C296.253 133.76 295.806 134.208 295.806 134.76H301.789ZM311.748 134.76C311.748 134.208 311.3 133.76 310.748 133.76H306.764C306.212 133.76 305.764 134.208 305.764 134.76H311.748ZM321.706 134.76C321.706 134.208 321.258 133.76 320.706 133.76H316.723C316.17 133.76 315.723 134.208 315.723 134.76H321.706ZM331.665 134.76C331.665 134.208 331.217 133.76 330.665 133.76H326.681C326.129 133.76 325.681 134.208 325.681 134.76H331.665ZM341.623 134.76C341.623 134.208 341.175 133.76 340.623 133.76H336.64C336.087 133.76 335.64 134.208 335.64 134.76H341.623ZM351.134 134.434C351.026 133.915 350.529 133.568 350 133.651C349.541 133.723 349.07 133.76 348.59 133.76H346.598C346.046 133.76 345.598 134.208 345.598 134.76H348.59C349.122 134.76 349.645 134.719 350.155 134.639C350.32 134.613 350.484 134.583 350.647 134.549C350.811 134.514 350.973 134.476 351.134 134.434ZM357.228 129.802C356.785 129.511 356.187 129.617 355.872 130.05C355.316 130.814 354.643 131.487 353.88 132.043C353.447 132.358 353.341 132.955 353.631 133.398C353.775 133.314 353.917 133.226 354.057 133.135C354.196 133.044 354.334 132.949 354.468 132.851C355.316 132.234 356.064 131.487 356.681 130.638C356.779 130.504 356.874 130.367 356.965 130.227C357.056 130.088 357.144 129.946 357.228 129.802ZM358.59 121.676C358.038 121.676 357.59 122.123 357.59 122.676V124.76C357.59 125.24 357.552 125.711 357.48 126.17C357.397 126.699 357.745 127.196 358.264 127.304C358.306 127.143 358.344 126.981 358.378 126.817C358.412 126.654 358.442 126.49 358.468 126.325C358.548 125.815 358.59 125.293 358.59 124.76V121.676ZM358.59 111.252C358.038 111.252 357.59 111.7 357.59 112.252V116.422C357.59 116.974 358.038 117.422 358.59 117.422V111.252ZM358.59 100.829C358.038 100.829 357.59 101.277 357.59 101.829V105.998C357.59 106.55 358.038 106.998 358.59 106.998V100.829ZM358.59 90.4054C358.038 90.4054 357.59 90.8531 357.59 91.4054V95.5748C357.59 96.1271 358.038 96.5748 358.59 96.5748V90.4054ZM358.59 79.982C358.038 79.982 357.59 80.4298 357.59 80.982V85.1514C357.59 85.7037 358.038 86.1514 358.59 86.1514V79.982ZM358.59 69.5587C358.038 69.5587 357.59 70.0064 357.59 70.5587V74.728C357.59 75.2803 358.038 75.728 358.59 75.728V69.5587ZM358.59 59.1353C358.038 59.1353 357.59 59.583 357.59 60.1353V64.3046C357.59 64.8569 358.038 65.3046 358.59 65.3046V59.1353ZM358.59 48.7119C358.038 48.7119 357.59 49.1596 357.59 49.7119V53.8812C357.59 54.4335 358.038 54.8812 358.59 54.8812V48.7119ZM358.59 38.2885C358.038 38.2885 357.59 38.7362 357.59 39.2885V43.4579C357.59 44.0101 358.038 44.4579 358.59 44.4579V38.2885ZM358.59 27.8651C358.038 27.8651 357.59 28.3128 357.59 28.8651V33.0345C357.59 33.5868 358.038 34.0345 358.59 34.0345V27.8651ZM358.59 17.4417C358.038 17.4417 357.59 17.8895 357.59 18.4417V22.6111C357.59 23.1634 358.038 23.6111 358.59 23.6111V17.4417ZM358.264 7.55931C357.745 7.66728 357.397 8.16446 357.48 8.69341C357.552 9.1521 357.59 9.62284 357.59 10.103V12.1877C357.59 12.74 358.038 13.1877 358.59 13.1877V10.103C358.59 9.57067 358.548 9.04802 358.468 8.53817C358.442 8.37284 358.412 8.20886 358.378 8.04633C358.344 7.88248 358.306 7.72011 358.264 7.55931ZM353.631 1.46485C353.341 1.90795 353.447 2.50563 353.88 2.82077C354.643 3.37656 355.316 4.04961 355.872 4.81328C356.187 5.2463 356.785 5.35208 357.228 5.06175C357.144 4.9176 357.056 4.77575 356.965 4.63632C356.874 4.4967 356.779 4.3595 356.681 4.22484C356.064 3.37676 355.316 2.62945 354.468 2.01223C354.334 1.91423 354.196 1.8195 354.057 1.72817C353.917 1.63697 353.775 1.54916 353.631 1.46485ZM345.598 0.103027C345.598 0.655312 346.046 1.10303 346.598 1.10303H348.59C349.07 1.10303 349.541 1.14054 350 1.21263C350.529 1.29576 351.026 0.947901 351.134 0.429428C350.973 0.387262 350.811 0.348999 350.647 0.314747C350.484 0.280768 350.32 0.250734 350.155 0.224753C349.645 0.144627 349.122 0.103027 348.59 0.103027H345.598ZM335.64 0.103027C335.64 0.655312 336.087 1.10303 336.64 1.10303H340.623C341.175 1.10303 341.623 0.655312 341.623 0.103027H335.64ZM325.681 0.103027C325.681 0.655312 326.129 1.10303 326.681 1.10303H330.665C331.217 1.10303 331.665 0.655312 331.665 0.103027H325.681ZM315.723 0.103027C315.723 0.655312 316.17 1.10303 316.723 1.10303H320.706C321.258 1.10303 321.706 0.655312 321.706 0.103027H315.723ZM305.764 0.103027C305.764 0.655312 306.212 1.10303 306.764 1.10303H310.748C311.3 1.10303 311.748 0.655312 311.748 0.103027H305.764ZM295.806 0.103027C295.806 0.655312 296.253 1.10303 296.806 1.10303H300.789C301.341 1.10303 301.789 0.655312 301.789 0.103027H295.806ZM285.847 0.103027C285.847 0.655312 286.295 1.10303 286.847 1.10303H290.831C291.383 1.10303 291.831 0.655312 291.831 0.103027H285.847ZM275.889 0.103027C275.889 0.655312 276.336 1.10303 276.889 1.10303H280.872C281.424 1.10303 281.872 0.655312 281.872 0.103027H275.889ZM265.93 0.103027C265.93 0.655312 266.378 1.10303 266.93 1.10303H270.913C271.466 1.10303 271.913 0.655312 271.913 0.103027H265.93ZM255.972 0.103027C255.972 0.655312 256.419 1.10303 256.972 1.10303H260.955C261.507 1.10303 261.955 0.655312 261.955 0.103027H255.972ZM246.013 0.103027C246.013 0.655312 246.461 1.10303 247.013 1.10303H250.996C251.549 1.10303 251.996 0.655312 251.996 0.103027H246.013ZM236.054 0.103027C236.054 0.655312 236.502 1.10303 237.054 1.10303H241.038C241.59 1.10303 242.038 0.655312 242.038 0.103027H236.054ZM226.096 0.103027C226.096 0.655312 226.544 1.10303 227.096 1.10303H231.079C231.632 1.10303 232.079 0.655312 232.079 0.103027H226.096ZM216.137 0.103027C216.137 0.655312 216.585 1.10303 217.137 1.10303H221.121C221.673 1.10303 222.121 0.655312 222.121 0.103027H216.137ZM206.179 0.103027C206.179 0.655312 206.627 1.10303 207.179 1.10303H211.162C211.715 1.10303 212.162 0.655312 212.162 0.103027H206.179ZM196.22 0.103027C196.22 0.655312 196.668 1.10303 197.22 1.10303H201.204C201.756 1.10303 202.204 0.655312 202.204 0.103027H196.22ZM186.262 0.103027C186.262 0.655312 186.71 1.10303 187.262 1.10303H191.245C191.798 1.10303 192.245 0.655312 192.245 0.103027H186.262ZM176.303 0.103027C176.303 0.655312 176.751 1.10303 177.303 1.10303H181.287C181.839 1.10303 182.287 0.655312 182.287 0.103027H176.303ZM166.345 0.103027C166.345 0.655312 166.792 1.10303 167.345 1.10303H171.328C171.88 1.10303 172.328 0.655312 172.328 0.103027H166.345ZM156.386 0.103027C156.386 0.655312 156.834 1.10303 157.386 1.10303H161.37C161.922 1.10303 162.37 0.655312 162.37 0.103027H156.386ZM146.428 0.103027C146.428 0.655312 146.875 1.10303 147.428 1.10303H151.411C151.963 1.10303 152.411 0.655312 152.411 0.103027H146.428ZM136.469 0.103027C136.469 0.655312 136.917 1.10303 137.469 1.10303H141.453C142.005 1.10303 142.453 0.655312 142.453 0.103027H136.469ZM126.511 0.103027C126.511 0.655312 126.958 1.10303 127.511 1.10303H131.494C132.046 1.10303 132.494 0.655312 132.494 0.103027H126.511ZM116.552 0.103027C116.552 0.655312 117 1.10303 117.552 1.10303H121.536C122.088 1.10303 122.536 0.655312 122.536 0.103027H116.552ZM106.594 0.103027C106.594 0.655312 107.041 1.10303 107.594 1.10303H111.577C112.129 1.10303 112.577 0.655312 112.577 0.103027H106.594ZM96.6351 0.103027C96.6351 0.655312 97.0828 1.10303 97.6351 1.10303H101.618C102.171 1.10303 102.618 0.655312 102.618 0.103027H96.6351ZM86.6765 0.103027C86.6765 0.655312 87.1243 1.10303 87.6765 1.10303H91.66C92.2122 1.10303 92.66 0.655312 92.66 0.103027H86.6765ZM76.718 0.103027C76.718 0.655312 77.1657 1.10303 77.718 1.10303H81.7014C82.2537 1.10303 82.7014 0.655312 82.7014 0.103027H76.718ZM66.7595 0.103027C66.7595 0.655312 67.2072 1.10303 67.7595 1.10303H71.7429C72.2952 1.10303 72.7429 0.655312 72.7429 0.103027H66.7595ZM56.8009 0.103027C56.8009 0.655312 57.2487 1.10303 57.8009 1.10303H61.7844C62.3366 1.10303 62.7844 0.655312 62.7844 0.103027H56.8009ZM46.8424 0.103027C46.8424 0.655312 47.2901 1.10303 47.8424 1.10303H51.8258C52.3781 1.10303 52.8258 0.655312 52.8258 0.103027H46.8424ZM36.8839 0.103027C36.8839 0.655312 37.3316 1.10303 37.8839 1.10303H41.8673C42.4196 1.10303 42.8673 0.655312 42.8673 0.103027H36.8839ZM26.9254 0.103027C26.9254 0.655312 27.3731 1.10303 27.9254 1.10303H31.9088C32.4611 1.10303 32.9088 0.655312 32.9088 0.103027H26.9254ZM16.9668 0.103027C16.9668 0.655312 17.4145 1.10303 17.9668 1.10303H21.9502C22.5025 1.10303 22.9502 0.655312 22.9502 0.103027H16.9668ZM12.9917 0.103027C12.9917 0.655312 12.544 1.10303 11.9917 1.10303H10C9.51981 1.10303 9.04907 1.14054 8.59038 1.21263C8.06144 1.29575 7.56425 0.947901 7.45628 0.429429C7.61708 0.387262 7.77945 0.348999 7.9433 0.314746C8.10583 0.280768 8.26981 0.250734 8.43514 0.224753C8.94499 0.144627 9.46764 0.103027 10 0.103027H12.9917ZM1.36183 5.06175C1.80493 5.35207 2.4026 5.24629 2.71774 4.81328C3.27353 4.0496 3.94658 3.37655 4.71026 2.82076C5.14327 2.50562 5.24905 1.90795 4.95873 1.46485C4.81458 1.54916 4.67273 1.63697 4.5333 1.72817C4.39368 1.8195 4.25647 1.91422 4.12182 2.01222C3.27373 2.62944 2.52642 3.37675 1.9092 4.22484C1.8112 4.3595 1.71647 4.4967 1.62515 4.63632C1.53395 4.77575 1.44613 4.9176 1.36183 5.06175ZM0 13.1877C0.552285 13.1877 1 12.74 1 12.1877V10.103C1 9.62283 1.03752 9.15209 1.1096 8.6934C1.19273 8.16446 0.844874 7.66727 0.326402 7.5593C0.284236 7.7201 0.245972 7.88247 0.211719 8.04632C0.17774 8.20885 0.147707 8.37283 0.121726 8.53816C0.0415996 9.04801 0 9.57066 0 10.103V13.1877ZM0 23.6111C0.552285 23.6111 1 23.1634 1 22.6111V18.4417C1 17.8894 0.552285 17.4417 0 17.4417V23.6111ZM0 34.0345C0.552285 34.0345 1 33.5868 1 33.0345V28.8651C1 28.3128 0.552285 27.8651 0 27.8651V34.0345ZM0 44.4579C0.552285 44.4579 1 44.0102 1 43.4579V39.2885C1 38.7362 0.552285 38.2885 0 38.2885V44.4579ZM0 54.8812C0.552285 54.8812 1 54.4335 1 53.8812V49.7119C1 49.1596 0.552285 48.7119 0 48.7119V54.8812ZM0 65.3046C0.552285 65.3046 1 64.8569 1 64.3046V60.1353C1 59.583 0.552285 59.1353 0 59.1353V65.3046ZM0 75.728C0.552285 75.728 1 75.2803 1 74.728V70.5587C1 70.0064 0.552285 69.5587 0 69.5587V75.728ZM0 86.1514C0.552285 86.1514 1 85.7037 1 85.1514V80.982C1 80.4298 0.552285 79.982 0 79.982V86.1514ZM0 96.5748C0.552285 96.5748 1 96.1271 1 95.5748V91.4054C1 90.8531 0.552285 90.4054 0 90.4054V96.5748ZM0 106.998C0.552285 106.998 1 106.55 1 105.998V101.829C1 101.277 0.552285 100.829 0 100.829V106.998ZM0 117.422C0.552285 117.422 1 116.974 1 116.422V112.252C1 111.7 0.552285 111.252 0 111.252V117.422ZM0.326402 127.304C0.844874 127.196 1.19273 126.699 1.1096 126.17C1.03752 125.711 1 125.24 1 124.76V122.676C1 122.123 0.552285 121.676 0 121.676V124.76C0 125.293 0.0415995 125.815 0.121725 126.325C0.147707 126.49 0.17774 126.654 0.211718 126.817C0.245972 126.981 0.284236 127.143 0.326402 127.304ZM4.95873 133.398C5.24905 132.955 5.14326 132.358 4.71025 132.043C3.94657 131.487 3.27353 130.814 2.71774 130.05C2.4026 129.617 1.80493 129.511 1.36183 129.802C1.44613 129.946 1.53394 130.088 1.62514 130.227C1.71647 130.367 1.8112 130.504 1.9092 130.638C2.52642 131.487 3.27373 132.234 4.12181 132.851C4.25647 132.949 4.39367 133.044 4.5333 133.135C4.67273 133.226 4.81458 133.314 4.95873 133.398Z" fill="#9584FE"/>
</svg>
