<svg width="850" height="286" viewBox="0 0 850 286" fill="none" xmlns="http://www.w3.org/2000/svg">
<g id="review">
<g id="white" filter="url(#filter0_d_51_256)">
<path d="M61.953 50.5742C61.953 45.0514 66.4301 40.5742 71.953 40.5742H799.291C804.814 40.5742 809.291 45.0514 809.291 50.5742V235.574C809.291 241.097 804.814 245.574 799.291 245.574H71.953C66.4301 245.574 61.953 241.097 61.953 235.574V111.012C61.953 110.733 61.8364 110.467 61.6313 110.277L41.0868 91.3089C40.6579 90.913 40.6579 90.2354 41.0868 89.8395L61.6313 70.8712C61.8364 70.6819 61.953 70.4155 61.953 70.1365V50.5742Z" fill="white"/>
</g>
<g id="stroke">
<mask id="path-2-inside-1_51_256" fill="white">
<path d="M71.7262 51.5742C71.7262 51.0219 72.174 50.5742 72.7262 50.5742H797.291C797.843 50.5742 798.291 51.0219 798.291 51.5742V234.574C798.291 235.126 797.843 235.574 797.291 235.574H72.7262C72.174 235.574 71.7262 235.127 71.7262 234.574V108.045C71.7262 107.747 71.5933 107.464 71.3636 107.274L54.1933 93.0706C53.7196 92.6788 53.7083 91.9564 54.1695 91.5499L71.3875 76.3728C71.6029 76.183 71.7262 75.9097 71.7262 75.6226V51.5742Z"/>
</mask>
<path d="M71.7262 51.5742C71.7262 51.0219 72.174 50.5742 72.7262 50.5742H797.291C797.843 50.5742 798.291 51.0219 798.291 51.5742V234.574C798.291 235.126 797.843 235.574 797.291 235.574H72.7262C72.174 235.574 71.7262 235.127 71.7262 234.574V108.045C71.7262 107.747 71.5933 107.464 71.3636 107.274L54.1933 93.0706C53.7196 92.6788 53.7083 91.9564 54.1695 91.5499L71.3875 76.3728C71.6029 76.183 71.7262 75.9097 71.7262 75.6226V51.5742Z" fill="white" stroke="#9584FE" stroke-width="2" stroke-linecap="round" stroke-linejoin="round" stroke-dasharray="4 6" mask="url(#path-2-inside-1_51_256)"/>
</g>
</g>
<defs>
<filter id="filter0_d_51_256" x="0.765625" y="0.574219" width="848.525" height="285" filterUnits="userSpaceOnUse" color-interpolation-filters="sRGB">
<feFlood flood-opacity="0" result="BackgroundImageFix"/>
<feColorMatrix in="SourceAlpha" type="matrix" values="0 0 0 0 0 0 0 0 0 0 0 0 0 0 0 0 0 0 127 0" result="hardAlpha"/>
<feOffset/>
<feGaussianBlur stdDeviation="20"/>
<feColorMatrix type="matrix" values="0 0 0 0 0.866701 0 0 0 0 0.88983 0 0 0 0 0.908333 0 0 0 1 0"/>
<feBlend mode="normal" in2="BackgroundImageFix" result="effect1_dropShadow_51_256"/>
<feBlend mode="normal" in="SourceGraphic" in2="effect1_dropShadow_51_256" result="shape"/>
</filter>
</defs>
</svg>
