<svg width="69" height="69" viewBox="0 0 69 69" fill="none" xmlns="http://www.w3.org/2000/svg">
<g filter="url(#filter0_d_1127_15)">
<path fill-rule="evenodd" clip-rule="evenodd" d="M5.02133 36.4585C5.00849 36.2926 4.99699 36.1263 4.98683 35.9597C4.94915 35.3413 4.93003 34.7179 4.93003 34.09C4.93003 33.462 4.94915 32.8386 4.98683 32.2203C4.99699 32.0536 5.00849 31.8873 5.02133 31.7214C5.03422 31.555 5.04844 31.3889 5.06401 31.2232C5.60719 31.2651 6.01824 31.7353 5.98498 32.2811C5.94853 32.8792 5.93003 33.4823 5.93003 34.09C5.93003 34.6976 5.94853 35.3008 5.98498 35.8989C6.01824 36.4447 5.60719 36.9148 5.06401 36.9567C5.04844 36.791 5.03422 36.625 5.02133 36.4585ZM5.61452 40.5198C6.14483 40.3955 6.6787 40.7193 6.81209 41.2495C7.10839 42.4272 7.4761 43.576 7.9103 44.691C8.10869 45.2004 7.86109 45.7736 7.35687 45.9795C7.29128 45.8264 7.22692 45.6727 7.1638 45.5183C7.10078 45.3641 7.03899 45.2093 6.97846 45.0539C6.52925 43.9004 6.14883 42.7119 5.84231 41.4935C5.80169 41.332 5.76237 41.1701 5.72437 41.0076C5.68644 40.8455 5.64982 40.6829 5.61452 40.5198ZM8.9739 49.2025C9.44043 48.9214 10.0479 49.0656 10.3377 49.5292C10.978 50.5537 11.6801 51.5347 12.4388 52.4669C12.7839 52.8909 12.7241 53.5124 12.3073 53.8631C12.1979 53.7374 12.0894 53.6108 11.9821 53.4833C11.8747 53.3558 11.7684 53.2274 11.6632 53.0981C10.8784 52.1339 10.152 51.119 9.48967 50.0592C9.40138 49.9179 9.31422 49.7759 9.22822 49.633C9.14229 49.4903 9.05751 49.3468 8.9739 49.2025ZM14.8351 56.4351C15.1929 56.0245 15.8153 55.9753 16.2333 56.3276C17.1535 57.1031 18.1225 57.8211 19.1349 58.4762C19.5938 58.7732 19.7285 59.3827 19.4402 59.8447C19.2973 59.7589 19.1551 59.672 19.0137 59.5838C18.8722 59.4956 18.7315 59.4063 18.5916 59.3157C17.5438 58.6377 16.541 57.8947 15.5889 57.0923C15.4614 56.9849 15.3349 56.8764 15.2093 56.7669C15.0836 56.6573 14.9589 56.5467 14.8351 56.4351ZM22.64 61.507C22.8521 61.0055 23.428 60.7649 23.9349 60.9694C25.0447 61.4169 26.1886 61.796 27.3616 62.1016C27.8905 62.2394 28.2097 62.7757 28.0814 63.3047C27.9185 63.2682 27.7562 63.2304 27.5944 63.1912C27.4322 63.1519 27.2706 63.1113 27.1095 63.0693C25.8947 62.7528 24.7101 62.3602 23.5609 61.8968C23.4063 61.8344 23.2522 61.7707 23.0988 61.7058C22.9452 61.6408 22.7923 61.5745 22.64 61.507ZM31.641 63.8742C31.6844 63.3314 32.1553 62.9217 32.7008 62.9561C33.2981 62.9938 33.9005 63.013 34.5075 63.013C35.1145 63.013 35.7169 62.9938 36.3142 62.9561C36.8597 62.9217 37.3306 63.3314 37.374 63.8742C37.2083 63.8903 37.0423 63.9051 36.8759 63.9184C36.71 63.9317 36.5438 63.9436 36.3772 63.9541C35.7589 63.9932 35.1355 64.013 34.5075 64.013C33.8795 64.013 33.2561 63.9932 32.6378 63.9541C32.4712 63.9436 32.305 63.9317 32.1391 63.9184C31.9727 63.9051 31.8067 63.8903 31.641 63.8742ZM40.9336 63.3047C40.8053 62.7756 41.1245 62.2394 41.6534 62.1016C42.8264 61.796 43.9703 61.4169 45.0801 60.9694C45.587 60.7649 46.1629 61.0055 46.375 61.5069C46.2227 61.5745 46.0698 61.6408 45.9162 61.7058C45.7628 61.7707 45.6087 61.8344 45.4541 61.8968C44.3049 62.3602 43.1203 62.7528 41.9055 63.0693C41.7444 63.1113 41.5828 63.1519 41.4206 63.1912C41.2588 63.2304 41.0965 63.2682 40.9336 63.3047ZM49.5748 59.8447C49.2865 59.3827 49.4212 58.7732 49.8801 58.4762C50.8925 57.8211 51.8615 57.1031 52.7817 56.3276C53.1997 55.9753 53.8221 56.0245 54.1799 56.4351C54.0561 56.5467 53.9314 56.6573 53.8057 56.7669C53.6801 56.8764 53.5536 56.9849 53.4261 57.0923C52.474 57.8947 51.4712 58.6377 50.4234 59.3157C50.2835 59.4063 50.1428 59.4956 50.0013 59.5838C49.8599 59.672 49.7177 59.7589 49.5748 59.8447ZM56.7077 53.8631C56.2909 53.5124 56.2311 52.8909 56.5762 52.4669C57.3349 51.5347 58.037 50.5537 58.6773 49.5292C58.9671 49.0656 59.5746 48.9214 60.0411 49.2025C59.9575 49.3468 59.8727 49.4903 59.7868 49.633C59.7008 49.7758 59.6136 49.9179 59.5253 50.0592C58.863 51.119 58.1366 52.1339 57.3518 53.0981C57.2466 53.2274 57.1403 53.3558 57.0329 53.4833C56.9256 53.6108 56.8171 53.7374 56.7077 53.8631ZM61.6581 45.9795C61.1539 45.7736 60.9063 45.2004 61.1047 44.691C61.5389 43.576 61.9066 42.4272 62.2029 41.2495C62.3363 40.7193 62.8702 40.3955 63.4005 40.5198C63.3652 40.6829 63.3285 40.8455 63.2906 41.0076C63.2526 41.1701 63.2133 41.332 63.1727 41.4935C62.8662 42.7119 62.4857 43.9004 62.0365 45.0539C61.976 45.2093 61.9142 45.3641 61.8512 45.5182C61.7881 45.6727 61.7237 45.8264 61.6581 45.9795ZM63.951 36.9567C63.4078 36.9148 62.9968 36.4447 63.03 35.8989C63.0665 35.3008 63.085 34.6976 63.085 34.09C63.085 33.4823 63.0665 32.8792 63.03 32.2811C62.9968 31.7353 63.4078 31.2651 63.951 31.2232C63.9665 31.3889 63.9808 31.555 63.9937 31.7214C64.0065 31.8873 64.018 32.0536 64.0282 32.2203C64.0658 32.8386 64.085 33.462 64.085 34.09C64.085 34.7179 64.0658 35.3413 64.0282 35.9597C64.018 36.1263 64.0065 36.2926 63.9937 36.4585C63.9808 36.625 63.9665 36.791 63.951 36.9567ZM63.4005 27.6602C62.8702 27.7844 62.3363 27.4606 62.2029 26.9304C61.9066 25.7527 61.5389 24.6039 61.1047 23.489C60.9063 22.9795 61.1539 22.4064 61.6581 22.2004C61.7237 22.3535 61.7881 22.5073 61.8512 22.6617C61.9142 22.8158 61.976 22.9706 62.0365 23.1261C62.4857 24.2796 62.8662 25.4681 63.1727 26.6865C63.2133 26.8479 63.2526 27.0099 63.2906 27.1724C63.3285 27.3345 63.3652 27.4971 63.4005 27.6602ZM60.0411 18.9775C59.5746 19.2586 58.9671 19.1143 58.6773 18.6507C58.037 17.6262 57.3349 16.6452 56.5762 15.7131C56.2311 15.289 56.2909 14.6675 56.7077 14.3168C56.8171 14.4425 56.9256 14.5691 57.0329 14.6967C57.1403 14.8241 57.2465 14.9525 57.3518 15.0818C58.1366 16.0461 58.863 17.0609 59.5253 18.1207C59.6136 18.262 59.7008 18.4041 59.7868 18.5469C59.8727 18.6897 59.9575 18.8332 60.0411 18.9775ZM54.1799 11.7448C53.8221 12.1555 53.1997 12.2047 52.7817 11.8524C51.8615 11.0769 50.8925 10.3589 49.8801 9.70376C49.4212 9.40679 49.2865 8.79724 49.5748 8.33521C49.7177 8.42101 49.8599 8.50798 50.0013 8.59613C50.1428 8.68432 50.2835 8.77368 50.4234 8.86421C51.4712 9.54225 52.4739 10.2853 53.4261 11.0877C53.5536 11.1951 53.6801 11.3036 53.8057 11.4131C53.9314 11.5226 54.0561 11.6332 54.1799 11.7448ZM46.3749 6.67299C46.1629 7.17445 45.587 7.415 45.0801 7.21059C43.9703 6.76307 42.8264 6.38395 41.6534 6.07835C41.1245 5.94056 40.8053 5.40429 40.9336 4.87521C41.0965 4.91171 41.2588 4.94956 41.4206 4.98876C41.5828 5.02804 41.7444 5.06868 41.9055 5.11065C43.1203 5.42714 44.3049 5.81975 45.4541 6.28316C45.6087 6.34554 45.7628 6.4092 45.9161 6.47413C46.0697 6.53915 46.2227 6.60544 46.3749 6.67299ZM37.374 4.30571C37.3306 4.84852 36.8597 5.25825 36.3142 5.22382C35.7169 5.18613 35.1145 5.16699 34.5075 5.16699C33.9005 5.16699 33.2981 5.18613 32.7008 5.22382C32.1553 5.25825 31.6844 4.84852 31.641 4.30571C31.8067 4.2896 31.9727 4.27487 32.1391 4.26153C32.305 4.24823 32.4712 4.23632 32.6378 4.22581C33.2561 4.18679 33.8795 4.16699 34.5075 4.16699C35.1355 4.16699 35.7589 4.18679 36.3772 4.22581C36.5438 4.23632 36.71 4.24823 36.8759 4.26153C37.0423 4.27487 37.2083 4.2896 37.374 4.30571ZM28.0814 4.87521C28.2097 5.4043 27.8905 5.94056 27.3616 6.07835C26.1886 6.38396 25.0447 6.76307 23.9349 7.21059C23.428 7.41501 22.8521 7.17445 22.64 6.673C22.7923 6.60544 22.9452 6.53915 23.0988 6.47413C23.2522 6.4092 23.4063 6.34554 23.5609 6.28316C24.71 5.81976 25.8946 5.42714 27.1095 5.11065C27.2706 5.06868 27.4322 5.02804 27.5944 4.98876C27.7562 4.94956 27.9185 4.91171 28.0814 4.87521ZM19.4402 8.33522C19.7285 8.79724 19.5938 9.40679 19.1349 9.70376C18.1225 10.3589 17.1535 11.0769 16.2333 11.8524C15.8153 12.2047 15.1929 12.1555 14.8351 11.7448C14.9589 11.6332 15.0836 11.5226 15.2093 11.4131C15.3349 11.3036 15.4614 11.1951 15.5889 11.0877C16.541 10.2853 17.5438 9.54225 18.5916 8.86421C18.7315 8.77369 18.8722 8.68432 19.0137 8.59613C19.1551 8.50798 19.2973 8.42101 19.4402 8.33522ZM12.3073 14.3168C12.7241 14.6675 12.7839 15.289 12.4388 15.7131C11.6801 16.6452 10.978 17.6262 10.3377 18.6507C10.0479 19.1143 9.44043 19.2586 8.9739 18.9775C9.05751 18.8332 9.14229 18.6897 9.22822 18.5469C9.31422 18.4041 9.40137 18.262 9.48966 18.1207C10.152 17.0609 10.8784 16.0461 11.6632 15.0818C11.7684 14.9525 11.8747 14.8241 11.9821 14.6967C12.0894 14.5691 12.1979 14.4425 12.3073 14.3168ZM7.35687 22.2004C7.86109 22.4064 8.10869 22.9795 7.91029 23.489C7.4761 24.6039 7.10839 25.7527 6.81209 26.9305C6.6787 27.4606 6.14483 27.7844 5.61452 27.6602C5.64982 27.4971 5.68644 27.3345 5.72437 27.1724C5.76237 27.0099 5.80169 26.8479 5.84231 26.6865C6.14883 25.4681 6.52925 24.2796 6.97846 23.1261C7.03899 22.9706 7.10078 22.8158 7.16379 22.6617C7.22691 22.5073 7.29128 22.3535 7.35687 22.2004Z" fill="white"/>
</g>
<defs>
<filter id="filter0_d_1127_15" x="0.929688" y="0.166992" width="67.1553" height="67.8459" filterUnits="userSpaceOnUse" color-interpolation-filters="sRGB">
<feFlood flood-opacity="0" result="BackgroundImageFix"/>
<feColorMatrix in="SourceAlpha" type="matrix" values="0 0 0 0 0 0 0 0 0 0 0 0 0 0 0 0 0 0 127 0" result="hardAlpha"/>
<feOffset/>
<feGaussianBlur stdDeviation="2"/>
<feColorMatrix type="matrix" values="0 0 0 0 0.340069 0 0 0 0 0.525901 0 0 0 0 0.983333 0 0 0 1 0"/>
<feBlend mode="normal" in2="BackgroundImageFix" result="effect1_dropShadow_1127_15"/>
<feBlend mode="normal" in="SourceGraphic" in2="effect1_dropShadow_1127_15" result="shape"/>
</filter>
</defs>
</svg>
