<svg width="268" height="58" viewBox="0 0 268 58" fill="none" xmlns="http://www.w3.org/2000/svg">
<g filter="url(#filter0_d_1126_6)">
<path fill-rule="evenodd" clip-rule="evenodd" d="M4.0049 28.5C4.00164 28.6663 4 28.833 4 29C4 29.167 4.00164 29.3337 4.0049 29.5C4.00818 29.667 4.01309 29.8336 4.01963 29.9998C4.03232 30.3226 4.05114 30.6439 4.07597 30.9634C4.0889 31.1299 4.10347 31.2959 4.11965 31.4615C4.13589 31.6277 4.15376 31.7934 4.17324 31.9587C4.71389 31.906 5.11522 31.43 5.07296 30.886C5.02463 30.2638 5 29.6349 5 29C5 28.3651 5.02463 27.7362 5.07296 27.114C5.11522 26.57 4.71389 26.094 4.17324 26.0413C4.15376 26.2066 4.13589 26.3723 4.11965 26.5385C4.10347 26.7041 4.0889 26.8701 4.07597 27.0366C4.05114 27.3561 4.03232 27.6774 4.01963 28.0002C4.01309 28.1664 4.00818 28.333 4.0049 28.5ZM4.92776 22.229C5.44751 22.3865 5.99999 22.0996 6.16848 21.5807C6.5594 20.3769 7.04294 19.2147 7.61077 18.1025C7.85885 17.6166 7.6714 17.0229 7.19261 16.7664C7.11097 16.9116 7.03074 17.0578 6.95194 17.2048C6.87324 17.3516 6.79596 17.4992 6.72013 17.6478C6.12856 18.8065 5.62472 20.0174 5.21737 21.2719C5.16595 21.4302 5.11607 21.5893 5.06775 21.749C5.01953 21.9083 4.97286 22.0683 4.92776 22.229ZM9.35484 13.5365C9.77454 13.8814 10.3949 13.8282 10.7495 13.4134C11.5666 12.4576 12.4576 11.5666 13.4134 10.7495C13.8282 10.3949 13.8814 9.77454 13.5365 9.35484C13.4056 9.45805 13.2757 9.56253 13.1469 9.66828C13.018 9.77406 12.8903 9.8811 12.7636 9.98939C11.7682 10.8404 10.8404 11.7682 9.98939 12.7636C9.8811 12.8903 9.77406 13.018 9.66828 13.1469C9.56253 13.2757 9.45804 13.4056 9.35484 13.5365ZM16.7664 7.19261C17.0229 7.6714 17.6166 7.85885 18.1025 7.61077C19.2147 7.04294 20.3769 6.5594 21.5807 6.16848C22.0996 5.99999 22.3865 5.44751 22.229 4.92776C22.0683 4.97286 21.9083 5.01953 21.749 5.06775C21.5893 5.11607 21.4302 5.16595 21.2719 5.21737C20.0174 5.62472 18.8065 6.12856 17.6478 6.72013C17.4992 6.79596 17.3516 6.87324 17.2048 6.95194C17.0578 7.03074 16.9116 7.11097 16.7664 7.19261ZM26.0413 4.17324C26.094 4.71389 26.57 5.11522 27.114 5.07296C27.7362 5.02463 28.3651 5 29 5H31C31.5523 5 32 4.55228 32 4H29C28.3392 4 27.6844 4.02564 27.0366 4.07597C26.8701 4.0889 26.7041 4.10347 26.5385 4.11965C26.3723 4.13589 26.2066 4.15376 26.0413 4.17324ZM36 4C36 4.55228 36.4477 5 37 5H41C41.5523 5 42 4.55228 42 4H36ZM46 4C46 4.55228 46.4477 5 47 5H51C51.5523 5 52 4.55228 52 4H46ZM56 4C56 4.55228 56.4477 5 57 5H61C61.5523 5 62 4.55228 62 4H56ZM66 4C66 4.55228 66.4477 5 67 5H71C71.5523 5 72 4.55228 72 4H66ZM76 4C76 4.55228 76.4477 5 77 5H81C81.5523 5 82 4.55228 82 4H76ZM86 4C86 4.55228 86.4477 5 87 5H91C91.5523 5 92 4.55228 92 4H86ZM96 4C96 4.55228 96.4477 5 97 5H101C101.552 5 102 4.55228 102 4H96ZM106 4C106 4.55228 106.448 5 107 5H111C111.552 5 112 4.55228 112 4H106ZM116 4C116 4.55228 116.448 5 117 5H121C121.552 5 122 4.55228 122 4H116ZM126 4C126 4.55228 126.448 5 127 5H131C131.552 5 132 4.55228 132 4H126ZM136 4C136 4.55228 136.448 5 137 5H141C141.552 5 142 4.55228 142 4H136ZM146 4C146 4.55228 146.448 5 147 5H151C151.552 5 152 4.55228 152 4H146ZM156 4C156 4.55228 156.448 5 157 5H161C161.552 5 162 4.55228 162 4H156ZM166 4C166 4.55228 166.448 5 167 5H171C171.552 5 172 4.55228 172 4H166ZM176 4C176 4.55228 176.448 5 177 5H181C181.552 5 182 4.55228 182 4H176ZM186 4C186 4.55228 186.448 5 187 5H191C191.552 5 192 4.55228 192 4H186ZM196 4C196 4.55228 196.448 5 197 5H201C201.552 5 202 4.55228 202 4H196ZM206 4C206 4.55228 206.448 5 207 5H211C211.552 5 212 4.55228 212 4H206ZM216 4C216 4.55228 216.448 5 217 5H221C221.552 5 222 4.55228 222 4H216ZM226 4C226 4.55228 226.448 5 227 5H231C231.552 5 232 4.55228 232 4H226ZM236 4C236 4.55228 236.448 5 237 5H239C239.635 5 240.264 5.02463 240.886 5.07296C241.43 5.11522 241.906 4.71389 241.959 4.17324C241.793 4.15376 241.628 4.13589 241.462 4.11965C241.296 4.10347 241.13 4.0889 240.963 4.07597C240.316 4.02564 239.661 4 239 4H236ZM245.771 4.92776C245.613 5.44751 245.9 5.99999 246.419 6.16848C247.623 6.5594 248.785 7.04294 249.898 7.61076C250.383 7.85885 250.977 7.6714 251.234 7.19262C251.088 7.11097 250.942 7.03074 250.795 6.95194C250.648 6.87324 250.501 6.79596 250.352 6.72013C249.194 6.12856 247.983 5.62472 246.728 5.21737C246.57 5.16595 246.411 5.11607 246.251 5.06775C246.092 5.01953 245.932 4.97286 245.771 4.92776ZM254.463 9.35483C254.119 9.77454 254.172 10.3949 254.587 10.7495C255.542 11.5666 256.433 12.4576 257.251 13.4134C257.605 13.8282 258.225 13.8814 258.645 13.5365C258.542 13.4056 258.437 13.2757 258.332 13.1469C258.226 13.018 258.119 12.8903 258.011 12.7636C257.16 11.7682 256.232 10.8404 255.236 9.98939C255.11 9.8811 254.982 9.77406 254.853 9.66828C254.724 9.56253 254.594 9.45804 254.463 9.35483ZM260.807 16.7664C260.329 17.0229 260.141 17.6166 260.389 18.1025C260.957 19.2147 261.441 20.3769 261.832 21.5807C262 22.0996 262.552 22.3865 263.072 22.229C263.027 22.0683 262.98 21.9083 262.932 21.749C262.884 21.5892 262.834 21.4302 262.783 21.2719C262.375 20.0174 261.871 18.8065 261.28 17.6478C261.204 17.4992 261.127 17.3516 261.048 17.2048C260.969 17.0578 260.889 16.9116 260.807 16.7664ZM263.827 26.0413C263.286 26.094 262.885 26.57 262.927 27.114C262.975 27.7362 263 28.3651 263 29C263 29.6349 262.975 30.2638 262.927 30.886C262.885 31.43 263.286 31.906 263.827 31.9587C263.846 31.7934 263.864 31.6277 263.88 31.4615C263.897 31.2959 263.911 31.1299 263.924 30.9634C263.949 30.6439 263.968 30.3226 263.98 29.9998C263.987 29.8336 263.992 29.667 263.995 29.5C263.998 29.3337 264 29.167 264 29C264 28.833 263.998 28.6663 263.995 28.5C263.992 28.333 263.987 28.1664 263.98 28.0002C263.968 27.6774 263.949 27.3561 263.924 27.0366C263.911 26.8701 263.897 26.7041 263.88 26.5385C263.864 26.3723 263.846 26.2066 263.827 26.0413ZM263.072 35.771C262.552 35.6135 262 35.9004 261.832 36.4193C261.441 37.6231 260.957 38.7853 260.389 39.8975C260.141 40.3834 260.329 40.9771 260.807 41.2336C260.889 41.0884 260.969 40.9422 261.048 40.7952C261.127 40.6484 261.204 40.5008 261.28 40.3522C261.871 39.1935 262.375 37.9826 262.783 36.7281C262.834 36.5698 262.884 36.4108 262.932 36.251C262.98 36.0917 263.027 35.9317 263.072 35.771ZM258.645 44.4635C258.225 44.1186 257.605 44.1718 257.251 44.5866C256.433 45.5424 255.542 46.4334 254.587 47.2505C254.172 47.6051 254.119 48.2255 254.463 48.6452C254.594 48.542 254.724 48.4375 254.853 48.3317C254.982 48.2259 255.11 48.1189 255.236 48.0106C256.232 47.1596 257.16 46.2318 258.011 45.2364C258.119 45.1097 258.226 44.982 258.332 44.8531C258.437 44.7243 258.542 44.5944 258.645 44.4635ZM251.234 50.8074C250.977 50.3286 250.383 50.1412 249.898 50.3892C248.785 50.9571 247.623 51.4406 246.419 51.8315C245.9 52 245.613 52.5525 245.771 53.0722C245.932 53.0271 246.092 52.9805 246.251 52.9323C246.411 52.8839 246.57 52.834 246.728 52.7826C247.983 52.3753 249.194 51.8714 250.352 51.2799C250.501 51.204 250.648 51.1268 250.795 51.0481C250.942 50.9693 251.088 50.889 251.234 50.8074ZM241.959 53.8268C241.906 53.2861 241.43 52.8848 240.886 52.927C240.264 52.9754 239.635 53 239 53H237C236.448 53 236 53.4477 236 54H239C239.661 54 240.316 53.9744 240.963 53.924C241.13 53.9111 241.296 53.8965 241.462 53.8804C241.628 53.8641 241.793 53.8462 241.959 53.8268ZM232 54C232 53.4477 231.552 53 231 53H227C226.448 53 226 53.4477 226 54H232ZM222 54C222 53.4477 221.552 53 221 53H217C216.448 53 216 53.4477 216 54H222ZM212 54C212 53.4477 211.552 53 211 53H207C206.448 53 206 53.4477 206 54H212ZM202 54C202 53.4477 201.552 53 201 53H197C196.448 53 196 53.4477 196 54H202ZM192 54C192 53.4477 191.552 53 191 53H187C186.448 53 186 53.4477 186 54H192ZM182 54C182 53.4477 181.552 53 181 53H177C176.448 53 176 53.4477 176 54H182ZM172 54C172 53.4477 171.552 53 171 53H167C166.448 53 166 53.4477 166 54H172ZM162 54C162 53.4477 161.552 53 161 53H157C156.448 53 156 53.4477 156 54H162ZM152 54C152 53.4477 151.552 53 151 53H147C146.448 53 146 53.4477 146 54H152ZM142 54C142 53.4477 141.552 53 141 53H137C136.448 53 136 53.4477 136 54H142ZM132 54C132 53.4477 131.552 53 131 53H127C126.448 53 126 53.4477 126 54H132ZM122 54C122 53.4477 121.552 53 121 53H117C116.448 53 116 53.4477 116 54H122ZM112 54C112 53.4477 111.552 53 111 53H107C106.448 53 106 53.4477 106 54H112ZM102 54C102 53.4477 101.552 53 101 53H97C96.4477 53 96 53.4477 96 54H102ZM92 54C92 53.4477 91.5523 53 91 53H87C86.4477 53 86 53.4477 86 54H92ZM82 54C82 53.4477 81.5523 53 81 53H77C76.4477 53 76 53.4477 76 54H82ZM72 54C72 53.4477 71.5523 53 71 53H67C66.4477 53 66 53.4477 66 54H72ZM62 54C62 53.4477 61.5523 53 61 53H57C56.4477 53 56 53.4477 56 54H62ZM52 54C52 53.4477 51.5523 53 51 53H47C46.4477 53 46 53.4477 46 54H52ZM42 54C42 53.4477 41.5523 53 41 53H37C36.4477 53 36 53.4477 36 54H42ZM32 54C32 53.4477 31.5523 53 31 53H29C28.3651 53 27.7362 52.9754 27.114 52.927C26.57 52.8848 26.094 53.2861 26.0413 53.8268C26.2066 53.8462 26.3723 53.8641 26.5385 53.8804C26.7041 53.8965 26.8701 53.9111 27.0366 53.924C27.6844 53.9744 28.3392 54 29 54H32ZM22.229 53.0722C22.3865 52.5525 22.0996 52 21.5807 51.8315C20.3769 51.4406 19.2147 50.9571 18.1025 50.3892C17.6166 50.1412 17.0229 50.3286 16.7664 50.8074C16.9116 50.889 17.0578 50.9693 17.2048 51.0481C17.3516 51.1268 17.4992 51.204 17.6478 51.2799C18.8065 51.8714 20.0174 52.3753 21.2719 52.7826C21.4302 52.834 21.5893 52.8839 21.749 52.9323C21.9083 52.9805 22.0683 53.0271 22.229 53.0722ZM13.5365 48.6452C13.8814 48.2255 13.8282 47.6051 13.4134 47.2505C12.4576 46.4334 11.5666 45.5424 10.7495 44.5866C10.3949 44.1718 9.77454 44.1186 9.35484 44.4635C9.45805 44.5944 9.56253 44.7243 9.66828 44.8531C9.77406 44.982 9.88111 45.1097 9.98939 45.2364C10.8404 46.2318 11.7682 47.1596 12.7636 48.0106C12.8903 48.1189 13.018 48.2259 13.1469 48.3317C13.2757 48.4375 13.4056 48.542 13.5365 48.6452ZM7.19262 41.2336C7.6714 40.9771 7.85885 40.3834 7.61077 39.8975C7.04294 38.7853 6.5594 37.6231 6.16848 36.4193C5.99999 35.9004 5.44751 35.6135 4.92776 35.771C4.97286 35.9317 5.01953 36.0917 5.06775 36.251C5.11607 36.4108 5.16595 36.5698 5.21737 36.7281C5.62472 37.9826 6.12856 39.1935 6.72013 40.3522C6.79596 40.5008 6.87324 40.6484 6.95194 40.7952C7.03075 40.9422 7.11098 41.0884 7.19262 41.2336Z" fill="white"/>
</g>
<defs>
<filter id="filter0_d_1126_6" x="0" y="0" width="268" height="58" filterUnits="userSpaceOnUse" color-interpolation-filters="sRGB">
<feFlood flood-opacity="0" result="BackgroundImageFix"/>
<feColorMatrix in="SourceAlpha" type="matrix" values="0 0 0 0 0 0 0 0 0 0 0 0 0 0 0 0 0 0 127 0" result="hardAlpha"/>
<feOffset/>
<feGaussianBlur stdDeviation="2"/>
<feColorMatrix type="matrix" values="0 0 0 0 0.447059 0 0 0 0 0.388235 0 0 0 0 0.901961 0 0 0 1 0"/>
<feBlend mode="normal" in2="BackgroundImageFix" result="effect1_dropShadow_1126_6"/>
<feBlend mode="normal" in="SourceGraphic" in2="effect1_dropShadow_1126_6" result="shape"/>
</filter>
</defs>
</svg>
