<svg width="207" height="40" viewBox="0 0 207 40" fill="none" xmlns="http://www.w3.org/2000/svg">
<path fill-rule="evenodd" clip-rule="evenodd" d="M6 40C5.35269 40 4.72933 39.8975 4.14525 39.7078C3.98601 39.6561 3.82968 39.5979 3.67659 39.5336C3.52211 39.4686 3.37093 39.3974 3.22335 39.3202C3.42234 38.8455 3.95569 38.5949 4.4541 38.7567C4.93964 38.9144 5.45884 39 6 39H7.95C8.50228 39 8.95 39.4477 8.95 40H6ZM18.7 40C18.7 39.4477 18.2523 39 17.7 39H13.8C13.2477 39 12.8 39.4477 12.8 40H18.7ZM28.45 40C28.45 39.4477 28.0023 39 27.45 39H23.55C22.9977 39 22.55 39.4477 22.55 40H28.45ZM38.2 40C38.2 39.4477 37.7523 39 37.2 39H33.3C32.7477 39 32.3 39.4477 32.3 40H38.2ZM47.95 40C47.95 39.4477 47.5023 39 46.95 39H43.05C42.4977 39 42.05 39.4477 42.05 40H47.95ZM57.7 40C57.7 39.4477 57.2523 39 56.7 39H52.8C52.2477 39 51.8 39.4477 51.8 40H57.7ZM67.45 40C67.45 39.4477 67.0023 39 66.45 39H62.55C61.9977 39 61.55 39.4477 61.55 40H67.45ZM77.2 40C77.2 39.4477 76.7523 39 76.2 39H72.3C71.7477 39 71.3 39.4477 71.3 40H77.2ZM86.95 40C86.95 39.4477 86.5023 39 85.95 39H82.05C81.4977 39 81.05 39.4477 81.05 40H86.95ZM96.7 40C96.7 39.4477 96.2523 39 95.7 39H91.8C91.2477 39 90.8 39.4477 90.8 40H96.7ZM106.45 40C106.45 39.4477 106.002 39 105.45 39H101.55C100.998 39 100.55 39.4477 100.55 40H106.45ZM116.2 40C116.2 39.4477 115.752 39 115.2 39H111.3C110.748 39 110.3 39.4477 110.3 40H116.2ZM125.95 40C125.95 39.4477 125.502 39 124.95 39H121.05C120.498 39 120.05 39.4477 120.05 40H125.95ZM135.7 40C135.7 39.4477 135.252 39 134.7 39H130.8C130.248 39 129.8 39.4477 129.8 40H135.7ZM145.45 40C145.45 39.4477 145.002 39 144.45 39H140.55C139.998 39 139.55 39.4477 139.55 40H145.45ZM155.2 40C155.2 39.4477 154.752 39 154.2 39H150.3C149.748 39 149.3 39.4477 149.3 40H155.2ZM164.95 40C164.95 39.4477 164.502 39 163.95 39H160.05C159.498 39 159.05 39.4477 159.05 40H164.95ZM174.7 40C174.7 39.4477 174.252 39 173.7 39H169.8C169.248 39 168.8 39.4477 168.8 40H174.7ZM184.45 40C184.45 39.4477 184.002 39 183.45 39H179.55C178.998 39 178.55 39.4477 178.55 40H184.45ZM194.2 40C194.2 39.4477 193.752 39 193.2 39H189.3C188.748 39 188.3 39.4477 188.3 40H194.2ZM203.777 39.3202C203.578 38.8455 203.044 38.5949 202.546 38.7567C202.06 38.9144 201.541 39 201 39H199.05C198.498 39 198.05 39.4477 198.05 40H201C201.647 40 202.271 39.8975 202.855 39.7078C203.014 39.6561 203.17 39.5979 203.323 39.5336C203.478 39.4686 203.629 39.3974 203.777 39.3202ZM207 31.1333C206.448 31.1333 206 31.581 206 32.1333V34C206 34.5412 205.914 35.0604 205.757 35.5459C205.595 36.0443 205.845 36.5777 206.32 36.7766C206.397 36.6291 206.469 36.4779 206.534 36.3234C206.598 36.1703 206.656 36.014 206.708 35.8548C206.897 35.2707 207 34.6473 207 34V31.1333ZM207 21.8C206.448 21.8 206 22.2477 206 22.8V26.5333C206 27.0856 206.448 27.5333 207 27.5333V21.8ZM207 12.4667C206.448 12.4667 206 12.9144 206 13.4667V17.2C206 17.7523 206.448 18.2 207 18.2V12.4667ZM206.32 3.22336C205.845 3.42234 205.595 3.95569 205.757 4.4541C205.914 4.93964 206 5.45884 206 6V7.86667C206 8.41895 206.448 8.86667 207 8.86667V6C207 5.35269 206.897 4.72933 206.708 4.14525C206.656 3.98601 206.598 3.82968 206.534 3.67659C206.469 3.52211 206.397 3.37093 206.32 3.22336ZM198.05 0C198.05 0.552285 198.498 1 199.05 1H201C201.541 1 202.06 1.08561 202.546 1.24328C203.044 1.40512 203.578 1.15453 203.777 0.67976C203.629 0.602581 203.478 0.531366 203.323 0.466427C203.17 0.402071 203.014 0.343879 202.855 0.292169C202.271 0.102505 201.647 0 201 0H198.05ZM188.3 0C188.3 0.552285 188.748 1 189.3 1H193.2C193.752 1 194.2 0.552285 194.2 0H188.3ZM178.55 0C178.55 0.552285 178.998 1 179.55 1H183.45C184.002 1 184.45 0.552285 184.45 0H178.55ZM168.8 0C168.8 0.552285 169.248 1 169.8 1H173.7C174.252 1 174.7 0.552285 174.7 0H168.8ZM159.05 0C159.05 0.552285 159.498 1 160.05 1H163.95C164.502 1 164.95 0.552285 164.95 0H159.05ZM149.3 0C149.3 0.552285 149.748 1 150.3 1H154.2C154.752 1 155.2 0.552285 155.2 0H149.3ZM139.55 0C139.55 0.552285 139.998 1 140.55 1H144.45C145.002 1 145.45 0.552285 145.45 0H139.55ZM129.8 0C129.8 0.552285 130.248 1 130.8 1H134.7C135.252 1 135.7 0.552285 135.7 0H129.8ZM120.05 0C120.05 0.552285 120.498 1 121.05 1H124.95C125.502 1 125.95 0.552285 125.95 0H120.05ZM110.3 0C110.3 0.552285 110.748 1 111.3 1H115.2C115.752 1 116.2 0.552285 116.2 0H110.3ZM100.55 0C100.55 0.552285 100.998 1 101.55 1H105.45C106.002 1 106.45 0.552285 106.45 0H100.55ZM90.8 0C90.8 0.552285 91.2477 1 91.8 1H95.7C96.2523 1 96.7 0.552285 96.7 0H90.8ZM81.05 0C81.05 0.552285 81.4977 1 82.05 1H85.95C86.5023 1 86.95 0.552285 86.95 0H81.05ZM71.3 0C71.3 0.552285 71.7477 1 72.3 1H76.2C76.7523 1 77.2 0.552285 77.2 0H71.3ZM61.55 0C61.55 0.552285 61.9977 1 62.55 1H66.45C67.0023 1 67.45 0.552285 67.45 0H61.55ZM51.8 0C51.8 0.552285 52.2477 1 52.8 1H56.7C57.2523 1 57.7 0.552285 57.7 0H51.8ZM42.05 0C42.05 0.552285 42.4977 1 43.05 1H46.95C47.5023 1 47.95 0.552285 47.95 0H42.05ZM32.3 0C32.3 0.552285 32.7477 1 33.3 1H37.2C37.7523 1 38.2 0.552285 38.2 0H32.3ZM22.55 0C22.55 0.552285 22.9977 1 23.55 1H27.45C28.0023 1 28.45 0.552285 28.45 0H22.55ZM12.8 0C12.8 0.552285 13.2477 1 13.8 1H17.7C18.2523 1 18.7 0.552285 18.7 0H12.8ZM8.95 0C8.95 0.552285 8.50229 1 7.95 1H6C5.45884 1 4.93964 1.08561 4.4541 1.24328C3.95569 1.40512 3.42234 1.15453 3.22336 0.679757C3.37093 0.602579 3.52211 0.531362 3.67659 0.466425C3.82968 0.402068 3.98601 0.343879 4.14525 0.292168C4.72933 0.102505 5.35269 0 6 0H8.95ZM0 8.86667C0.552285 8.86667 1 8.41895 1 7.86667V6C1 5.45884 1.08561 4.93964 1.24328 4.4541C1.40512 3.95569 1.15453 3.42234 0.679757 3.22335C0.60258 3.37093 0.531363 3.52211 0.466425 3.67659C0.402068 3.82968 0.343879 3.986 0.292169 4.14525C0.102505 4.72933 0 5.35269 0 6V8.86667ZM0 18.2C0.552285 18.2 1 17.7523 1 17.2V13.4667C1 12.9144 0.552285 12.4667 0 12.4667V18.2ZM0 27.5333C0.552285 27.5333 1 27.0856 1 26.5333V22.8C1 22.2477 0.552285 21.8 0 21.8V27.5333ZM0.679758 36.7766C1.15453 36.5777 1.40512 36.0443 1.24328 35.5459C1.08561 35.0604 1 34.5412 1 34V32.1333C1 31.581 0.552285 31.1333 0 31.1333V34C0 34.6473 0.102505 35.2707 0.292168 35.8548C0.343877 36.014 0.40207 36.1703 0.466426 36.3234C0.531364 36.4779 0.60258 36.6291 0.679758 36.7766Z" fill="#9584FE"/>
</svg>
