<svg width="68" height="69" viewBox="0 0 68 69" fill="none" xmlns="http://www.w3.org/2000/svg">
<g filter="url(#filter0_d_1127_13)">
<path fill-rule="evenodd" clip-rule="evenodd" d="M4.72006 37.2786C4.70722 37.1127 4.69572 36.9464 4.68556 36.7798C4.64788 36.1614 4.62876 35.538 4.62876 34.91C4.62876 34.2821 4.64788 33.6587 4.68556 33.0403C4.69572 32.8737 4.70722 32.7074 4.72006 32.5415C4.73295 32.3751 4.74717 32.209 4.76274 32.0433C5.30592 32.0852 5.71697 32.5553 5.68371 33.1011C5.64726 33.6993 5.62876 34.3024 5.62876 34.91C5.62876 35.5177 5.64726 36.1208 5.68371 36.7189C5.71697 37.2647 5.30592 37.7349 4.76274 37.7768C4.74717 37.6111 4.73295 37.445 4.72006 37.2786ZM5.31325 41.3398C5.84356 41.2156 6.37743 41.5394 6.51082 42.0696C6.80712 43.2473 7.17484 44.3961 7.60903 45.511C7.80742 46.0205 7.55982 46.5936 7.0556 46.7996C6.99001 46.6465 6.92565 46.4927 6.86253 46.3383C6.79951 46.1842 6.73772 46.0294 6.67719 45.8739C6.22799 44.7204 5.84756 43.5319 5.54104 42.3135C5.50042 42.1521 5.46111 41.9901 5.4231 41.8277C5.38517 41.6656 5.34855 41.5029 5.31325 41.3398ZM8.67263 50.0225C9.13916 49.7415 9.74666 49.8857 10.0364 50.3493C10.6767 51.3738 11.3788 52.3548 12.1375 53.287C12.4826 53.711 12.4228 54.3325 12.006 54.6832C11.8966 54.5575 11.7882 54.4309 11.6808 54.3034C11.5735 54.1759 11.4672 54.0475 11.3619 53.9182C10.5771 52.9539 9.85076 51.9391 9.1884 50.8793C9.10011 50.738 9.01295 50.5959 8.92695 50.4531C8.84102 50.3103 8.75624 50.1668 8.67263 50.0225ZM14.5338 57.2552C14.8916 56.8446 15.514 56.7954 15.932 57.1477C16.8523 57.9231 17.8213 58.6411 18.8336 59.2963C19.2925 59.5932 19.4272 60.2028 19.139 60.6648C18.996 60.579 18.8538 60.492 18.7124 60.4039C18.5709 60.3157 18.4302 60.2263 18.2903 60.1358C17.2425 59.4578 16.2398 58.7147 15.2876 57.9123C15.1602 57.8049 15.0336 57.6965 14.908 57.5869C14.7823 57.4774 14.6576 57.3668 14.5338 57.2552ZM22.3388 62.327C22.5509 61.8256 23.1268 61.585 23.6337 61.7894C24.7434 62.2369 25.8873 62.6161 27.0603 62.9217C27.5892 63.0595 27.9084 63.5957 27.7801 64.1248C27.6173 64.0883 27.4549 64.0505 27.2931 64.0113C27.131 63.972 26.9693 63.9313 26.8082 63.8894C25.5934 63.5729 24.4088 63.1803 23.2597 62.7169C23.105 62.6545 22.951 62.5908 22.7976 62.5259C22.644 62.4609 22.491 62.3946 22.3388 62.327ZM31.3398 64.6943C31.3831 64.1515 31.854 63.7418 32.3995 63.7762C32.9969 63.8139 33.5993 63.833 34.2062 63.833C34.8132 63.833 35.4156 63.8139 36.0129 63.7762C36.5584 63.7418 37.0294 64.1515 37.0727 64.6943C36.9071 64.7104 36.741 64.7251 36.5746 64.7385C36.4088 64.7518 36.2425 64.7637 36.0759 64.7742C35.4576 64.8132 34.8342 64.833 34.2062 64.833C33.5782 64.833 32.9548 64.8132 32.3366 64.7742C32.1699 64.7637 32.0037 64.7518 31.8378 64.7385C31.6714 64.7251 31.5054 64.7104 31.3398 64.6943ZM40.6324 64.1248C40.504 63.5957 40.8233 63.0595 41.3521 62.9217C42.5252 62.6161 43.6691 62.2369 44.7788 61.7894C45.2857 61.585 45.8616 61.8256 46.0737 62.327C45.9214 62.3946 45.7685 62.4609 45.6149 62.5259C45.4615 62.5908 45.3075 62.6545 45.1528 62.7169C44.0037 63.1803 42.8191 63.5729 41.6043 63.8894C41.4432 63.9313 41.2815 63.972 41.1193 64.0113C40.9575 64.0505 40.7952 64.0883 40.6324 64.1248ZM49.2735 60.6648C48.9853 60.2028 49.1199 59.5932 49.5788 59.2962C50.5912 58.6411 51.5602 57.9231 52.4804 57.1476C52.8985 56.7954 53.5209 56.8445 53.8786 57.2552C53.7548 57.3668 53.6301 57.4774 53.5045 57.5869C53.3788 57.6965 53.2523 57.8049 53.1248 57.9123C52.1727 58.7147 51.1699 59.4578 50.1221 60.1358C49.9822 60.2263 49.8415 60.3157 49.7001 60.4039C49.5587 60.492 49.4165 60.579 49.2735 60.6648ZM56.4064 54.6832C55.9897 54.3325 55.9298 53.711 56.2749 53.287C57.0336 52.3548 57.7358 51.3738 58.376 50.3493C58.6658 49.8857 59.2733 49.7415 59.7398 50.0225C59.6562 50.1668 59.5714 50.3103 59.4855 50.4531C59.3995 50.5959 59.3123 50.738 59.2241 50.8793C58.5617 51.9391 57.8354 52.9539 57.0505 53.9182C56.9453 54.0475 56.839 54.1759 56.7317 54.3034C56.6243 54.4309 56.5159 54.5575 56.4064 54.6832ZM61.3569 46.7996C60.8526 46.5936 60.605 46.0205 60.8034 45.511C61.2376 44.3961 61.6053 43.2473 61.9016 42.0696C62.035 41.5394 62.5689 41.2156 63.0992 41.3398C63.0639 41.5029 63.0273 41.6656 62.9894 41.8277C62.9514 41.9901 62.912 42.1521 62.8714 42.3135C62.5649 43.5319 62.1845 44.7204 61.7353 45.8739C61.6747 46.0294 61.6129 46.1842 61.5499 46.3383C61.4868 46.4927 61.4224 46.6465 61.3569 46.7996ZM63.6497 37.7768C63.1065 37.7349 62.6955 37.2647 62.7287 36.7189C62.7652 36.1208 62.7837 35.5177 62.7837 34.91C62.7837 34.3024 62.7652 33.6993 62.7287 33.1011C62.6955 32.5553 63.1065 32.0852 63.6497 32.0433C63.6653 32.209 63.6795 32.3751 63.6924 32.5415C63.7052 32.7074 63.7167 32.8737 63.7269 33.0403C63.7646 33.6587 63.7837 34.2821 63.7837 34.91C63.7837 35.538 63.7646 36.1614 63.7269 36.7798C63.7167 36.9464 63.7052 37.1127 63.6924 37.2786C63.6795 37.445 63.6653 37.6111 63.6497 37.7768ZM63.0992 28.4802C62.5689 28.6045 62.035 28.2807 61.9016 27.7505C61.6053 26.5728 61.2376 25.424 60.8034 24.309C60.605 23.7996 60.8526 23.2264 61.3569 23.0205C61.4224 23.1736 61.4868 23.3274 61.5499 23.4818C61.6129 23.6359 61.6747 23.7907 61.7353 23.9461C62.1845 25.0996 62.5649 26.2882 62.8714 27.5065C62.912 27.668 62.9513 27.8299 62.9894 27.9924C63.0273 28.1545 63.0639 28.3171 63.0992 28.4802ZM59.7398 19.7975C59.2733 20.0786 58.6658 19.9344 58.376 19.4708C57.7358 18.4463 57.0336 17.4653 56.2749 16.5331C55.9298 16.1091 55.9897 15.4876 56.4064 15.1369C56.5159 15.2626 56.6243 15.3892 56.7317 15.5167C56.839 15.6442 56.9453 15.7726 57.0505 15.9019C57.8354 16.8661 58.5617 17.881 59.2241 18.9408C59.3123 19.0821 59.3995 19.2242 59.4855 19.367C59.5714 19.5097 59.6562 19.6533 59.7398 19.7975ZM53.8786 12.5649C53.5209 12.9755 52.8985 13.0247 52.4804 12.6724C51.5602 11.8969 50.5912 11.1789 49.5788 10.5238C49.1199 10.2269 48.9853 9.61731 49.2735 9.15528C49.4165 9.24107 49.5587 9.32805 49.7001 9.4162C49.8415 9.50439 49.9822 9.59375 50.1221 9.68428C51.1699 10.3623 52.1727 11.1054 53.1248 11.9077C53.2523 12.0152 53.3788 12.1236 53.5045 12.2331C53.6301 12.3427 53.7548 12.4533 53.8786 12.5649ZM46.0737 7.49306C45.8616 7.99452 45.2857 8.23507 44.7788 8.03066C43.6691 7.58314 42.5252 7.20402 41.3521 6.89842C40.8233 6.76063 40.504 6.22436 40.6324 5.69528C40.7952 5.73177 40.9575 5.76963 41.1193 5.80883C41.2815 5.84811 41.4431 5.88875 41.6043 5.93072C42.8191 6.24721 44.0037 6.63982 45.1528 7.10323C45.3075 7.1656 45.4615 7.22927 45.6149 7.29419C45.7685 7.35922 45.9214 7.42551 46.0737 7.49306ZM37.0727 5.12578C37.0294 5.66859 36.5584 6.07832 36.0129 6.04389C35.4156 6.0062 34.8132 5.98706 34.2062 5.98706C33.5993 5.98706 32.9969 6.0062 32.3995 6.04389C31.854 6.07832 31.3831 5.66859 31.3398 5.12578C31.5054 5.10967 31.6714 5.09493 31.8378 5.0816C32.0037 5.0683 32.1699 5.05639 32.3366 5.04588C32.9548 5.00686 33.5782 4.98706 34.2062 4.98706C34.8342 4.98706 35.4576 5.00686 36.0759 5.04588C36.2425 5.05639 36.4088 5.0683 36.5746 5.0816C36.741 5.09493 36.9071 5.10967 37.0727 5.12578ZM27.7801 5.69528C27.9084 6.22436 27.5892 6.76063 27.0603 6.89842C25.8873 7.20402 24.7434 7.58314 23.6337 8.03066C23.1268 8.23508 22.5508 7.99452 22.3388 7.49306C22.491 7.42551 22.644 7.35922 22.7976 7.2942C22.9509 7.22927 23.105 7.16561 23.2597 7.10323C24.4088 6.63983 25.5934 6.24721 26.8082 5.93072C26.9693 5.88875 27.1309 5.84811 27.2931 5.80883C27.4549 5.76963 27.6172 5.73178 27.7801 5.69528ZM19.139 9.15529C19.4272 9.61731 19.2925 10.2269 18.8336 10.5238C17.8213 11.1789 16.8523 11.8969 15.932 12.6724C15.514 13.0247 14.8916 12.9755 14.5338 12.5649C14.6576 12.4533 14.7823 12.3427 14.908 12.2332C15.0336 12.1236 15.1602 12.0152 15.2876 11.9078C16.2398 11.1054 17.2425 10.3623 18.2903 9.68428C18.4302 9.59376 18.5709 9.50439 18.7124 9.4162C18.8538 9.32805 18.996 9.24108 19.139 9.15529ZM12.006 15.1369C12.4228 15.4876 12.4826 16.1091 12.1375 16.5331C11.3788 17.4653 10.6767 18.4463 10.0364 19.4708C9.74666 19.9344 9.13916 20.0786 8.67263 19.7975C8.75624 19.6533 8.84102 19.5097 8.92695 19.367C9.01295 19.2242 9.10011 19.0821 9.18839 18.9408C9.85075 17.881 10.5771 16.8661 11.3619 15.9019C11.4672 15.7726 11.5735 15.6442 11.6808 15.5167C11.7882 15.3892 11.8966 15.2626 12.006 15.1369ZM7.0556 23.0205C7.55982 23.2264 7.80742 23.7996 7.60902 24.309C7.17484 25.424 6.80712 26.5728 6.51082 27.7505C6.37743 28.2807 5.84356 28.6045 5.31325 28.4803C5.34855 28.3171 5.38517 28.1545 5.4231 27.9924C5.46111 27.83 5.50042 27.668 5.54104 27.5065C5.84756 26.2882 6.22799 25.0996 6.67719 23.9461C6.73772 23.7907 6.79951 23.6359 6.86252 23.4818C6.92564 23.3274 6.99001 23.1736 7.0556 23.0205Z" fill="#9584FE"/>
</g>
<defs>
<filter id="filter0_d_1127_13" x="0.628906" y="0.987061" width="67.1548" height="67.8459" filterUnits="userSpaceOnUse" color-interpolation-filters="sRGB">
<feFlood flood-opacity="0" result="BackgroundImageFix"/>
<feColorMatrix in="SourceAlpha" type="matrix" values="0 0 0 0 0 0 0 0 0 0 0 0 0 0 0 0 0 0 127 0" result="hardAlpha"/>
<feOffset/>
<feGaussianBlur stdDeviation="2"/>
<feColorMatrix type="matrix" values="0 0 0 0 0.340069 0 0 0 0 0.525901 0 0 0 0 0.983333 0 0 0 1 0"/>
<feBlend mode="normal" in2="BackgroundImageFix" result="effect1_dropShadow_1127_13"/>
<feBlend mode="normal" in="SourceGraphic" in2="effect1_dropShadow_1127_13" result="shape"/>
</filter>
</defs>
</svg>
