<svg width="215" height="48" viewBox="0 0 215 48" fill="none" xmlns="http://www.w3.org/2000/svg">
<g filter="url(#filter0_d_1127_12)">
<path fill-rule="evenodd" clip-rule="evenodd" d="M10 44C9.35269 44 8.72933 43.8975 8.14525 43.7078C7.98601 43.6561 7.82968 43.5979 7.67659 43.5336C7.52211 43.4686 7.37093 43.3974 7.22335 43.3202C7.42234 42.8455 7.95569 42.5949 8.4541 42.7567C8.93964 42.9144 9.45884 43 10 43H11.95C12.5023 43 12.95 43.4477 12.95 44H10ZM22.7 44C22.7 43.4477 22.2523 43 21.7 43H17.8C17.2477 43 16.8 43.4477 16.8 44H22.7ZM32.45 44C32.45 43.4477 32.0023 43 31.45 43H27.55C26.9977 43 26.55 43.4477 26.55 44H32.45ZM42.2 44C42.2 43.4477 41.7523 43 41.2 43H37.3C36.7477 43 36.3 43.4477 36.3 44H42.2ZM51.95 44C51.95 43.4477 51.5023 43 50.95 43H47.05C46.4977 43 46.05 43.4477 46.05 44H51.95ZM61.7 44C61.7 43.4477 61.2523 43 60.7 43H56.8C56.2477 43 55.8 43.4477 55.8 44H61.7ZM71.45 44C71.45 43.4477 71.0023 43 70.45 43H66.55C65.9977 43 65.55 43.4477 65.55 44H71.45ZM81.2 44C81.2 43.4477 80.7523 43 80.2 43H76.3C75.7477 43 75.3 43.4477 75.3 44H81.2ZM90.95 44C90.95 43.4477 90.5023 43 89.95 43H86.05C85.4977 43 85.05 43.4477 85.05 44H90.95ZM100.7 44C100.7 43.4477 100.252 43 99.7 43H95.8C95.2477 43 94.8 43.4477 94.8 44H100.7ZM110.45 44C110.45 43.4477 110.002 43 109.45 43H105.55C104.998 43 104.55 43.4477 104.55 44H110.45ZM120.2 44C120.2 43.4477 119.752 43 119.2 43H115.3C114.748 43 114.3 43.4477 114.3 44H120.2ZM129.95 44C129.95 43.4477 129.502 43 128.95 43H125.05C124.498 43 124.05 43.4477 124.05 44H129.95ZM139.7 44C139.7 43.4477 139.252 43 138.7 43H134.8C134.248 43 133.8 43.4477 133.8 44H139.7ZM149.45 44C149.45 43.4477 149.002 43 148.45 43H144.55C143.998 43 143.55 43.4477 143.55 44H149.45ZM159.2 44C159.2 43.4477 158.752 43 158.2 43H154.3C153.748 43 153.3 43.4477 153.3 44H159.2ZM168.95 44C168.95 43.4477 168.502 43 167.95 43H164.05C163.498 43 163.05 43.4477 163.05 44H168.95ZM178.7 44C178.7 43.4477 178.252 43 177.7 43H173.8C173.248 43 172.8 43.4477 172.8 44H178.7ZM188.45 44C188.45 43.4477 188.002 43 187.45 43H183.55C182.998 43 182.55 43.4477 182.55 44H188.45ZM198.2 44C198.2 43.4477 197.752 43 197.2 43H193.3C192.748 43 192.3 43.4477 192.3 44H198.2ZM207.777 43.3202C207.578 42.8455 207.044 42.5949 206.546 42.7567C206.06 42.9144 205.541 43 205 43H203.05C202.498 43 202.05 43.4477 202.05 44H205C205.647 44 206.271 43.8975 206.855 43.7078C207.014 43.6561 207.17 43.5979 207.323 43.5336C207.478 43.4686 207.629 43.3974 207.777 43.3202ZM211 35.1333C210.448 35.1333 210 35.581 210 36.1333V38C210 38.5412 209.914 39.0604 209.757 39.5459C209.595 40.0443 209.845 40.5777 210.32 40.7766C210.397 40.6291 210.469 40.4779 210.534 40.3234C210.598 40.1703 210.656 40.014 210.708 39.8548C210.897 39.2707 211 38.6473 211 38V35.1333ZM211 25.8C210.448 25.8 210 26.2477 210 26.8V30.5333C210 31.0856 210.448 31.5333 211 31.5333V25.8ZM211 16.4667C210.448 16.4667 210 16.9144 210 17.4667V21.2C210 21.7523 210.448 22.2 211 22.2V16.4667ZM210.32 7.22336C209.845 7.42234 209.595 7.95569 209.757 8.4541C209.914 8.93964 210 9.45884 210 10V11.8667C210 12.419 210.448 12.8667 211 12.8667V10C211 9.35269 210.897 8.72933 210.708 8.14525C210.656 7.98601 210.598 7.82968 210.534 7.67659C210.469 7.52211 210.397 7.37093 210.32 7.22336ZM202.05 4C202.05 4.55228 202.498 5 203.05 5H205C205.541 5 206.06 5.08561 206.546 5.24328C207.044 5.40512 207.578 5.15453 207.777 4.67976C207.629 4.60258 207.478 4.53137 207.323 4.46643C207.17 4.40207 207.014 4.34388 206.855 4.29217C206.271 4.10251 205.647 4 205 4H202.05ZM192.3 4C192.3 4.55228 192.748 5 193.3 5H197.2C197.752 5 198.2 4.55228 198.2 4H192.3ZM182.55 4C182.55 4.55228 182.998 5 183.55 5H187.45C188.002 5 188.45 4.55228 188.45 4H182.55ZM172.8 4C172.8 4.55228 173.248 5 173.8 5H177.7C178.252 5 178.7 4.55228 178.7 4H172.8ZM163.05 4C163.05 4.55228 163.498 5 164.05 5H167.95C168.502 5 168.95 4.55228 168.95 4H163.05ZM153.3 4C153.3 4.55228 153.748 5 154.3 5H158.2C158.752 5 159.2 4.55228 159.2 4H153.3ZM143.55 4C143.55 4.55228 143.998 5 144.55 5H148.45C149.002 5 149.45 4.55228 149.45 4H143.55ZM133.8 4C133.8 4.55228 134.248 5 134.8 5H138.7C139.252 5 139.7 4.55228 139.7 4H133.8ZM124.05 4C124.05 4.55228 124.498 5 125.05 5H128.95C129.502 5 129.95 4.55228 129.95 4H124.05ZM114.3 4C114.3 4.55228 114.748 5 115.3 5H119.2C119.752 5 120.2 4.55228 120.2 4H114.3ZM104.55 4C104.55 4.55228 104.998 5 105.55 5H109.45C110.002 5 110.45 4.55228 110.45 4H104.55ZM94.8 4C94.8 4.55228 95.2477 5 95.8 5H99.7C100.252 5 100.7 4.55228 100.7 4H94.8ZM85.05 4C85.05 4.55228 85.4977 5 86.05 5H89.95C90.5023 5 90.95 4.55228 90.95 4H85.05ZM75.3 4C75.3 4.55228 75.7477 5 76.3 5H80.2C80.7523 5 81.2 4.55228 81.2 4H75.3ZM65.55 4C65.55 4.55228 65.9977 5 66.55 5H70.45C71.0023 5 71.45 4.55228 71.45 4H65.55ZM55.8 4C55.8 4.55228 56.2477 5 56.8 5H60.7C61.2523 5 61.7 4.55228 61.7 4H55.8ZM46.05 4C46.05 4.55228 46.4977 5 47.05 5H50.95C51.5023 5 51.95 4.55228 51.95 4H46.05ZM36.3 4C36.3 4.55228 36.7477 5 37.3 5H41.2C41.7523 5 42.2 4.55228 42.2 4H36.3ZM26.55 4C26.55 4.55228 26.9977 5 27.55 5H31.45C32.0023 5 32.45 4.55228 32.45 4H26.55ZM16.8 4C16.8 4.55228 17.2477 5 17.8 5H21.7C22.2523 5 22.7 4.55228 22.7 4H16.8ZM12.95 4C12.95 4.55228 12.5023 5 11.95 5H10C9.45884 5 8.93964 5.08561 8.4541 5.24328C7.95569 5.40512 7.42234 5.15453 7.22336 4.67976C7.37093 4.60258 7.52211 4.53136 7.67659 4.46642C7.82968 4.40207 7.98601 4.34388 8.14525 4.29217C8.72933 4.10251 9.35269 4 10 4H12.95ZM4 12.8667C4.55228 12.8667 5 12.419 5 11.8667V10C5 9.45884 5.08561 8.93964 5.24328 8.4541C5.40512 7.95569 5.15453 7.42234 4.67976 7.22335C4.60258 7.37093 4.53136 7.52211 4.46643 7.67659C4.40207 7.82968 4.34388 7.986 4.29217 8.14525C4.10251 8.72933 4 9.35269 4 10V12.8667ZM4 22.2C4.55228 22.2 5 21.7523 5 21.2V17.4667C5 16.9144 4.55228 16.4667 4 16.4667V22.2ZM4 31.5333C4.55228 31.5333 5 31.0856 5 30.5333V26.8C5 26.2477 4.55228 25.8 4 25.8V31.5333ZM4.67976 40.7766C5.15453 40.5777 5.40512 40.0443 5.24328 39.5459C5.08561 39.0604 5 38.5412 5 38V36.1333C5 35.581 4.55228 35.1333 4 35.1333V38C4 38.6473 4.1025 39.2707 4.29217 39.8548C4.34388 40.014 4.40207 40.1703 4.46643 40.3234C4.53136 40.4779 4.60258 40.6291 4.67976 40.7766Z" fill="#9584FE"/>
</g>
<defs>
<filter id="filter0_d_1127_12" x="0" y="0" width="215" height="48" filterUnits="userSpaceOnUse" color-interpolation-filters="sRGB">
<feFlood flood-opacity="0" result="BackgroundImageFix"/>
<feColorMatrix in="SourceAlpha" type="matrix" values="0 0 0 0 0 0 0 0 0 0 0 0 0 0 0 0 0 0 127 0" result="hardAlpha"/>
<feOffset/>
<feGaussianBlur stdDeviation="2"/>
<feColorMatrix type="matrix" values="0 0 0 0 0.404585 0 0 0 0 0.334375 0 0 0 0 0.891667 0 0 0 1 0"/>
<feBlend mode="normal" in2="BackgroundImageFix" result="effect1_dropShadow_1127_12"/>
<feBlend mode="normal" in="SourceGraphic" in2="effect1_dropShadow_1127_12" result="shape"/>
</filter>
</defs>
</svg>
