<svg width="68" height="69" viewBox="0 0 68 69" fill="none" xmlns="http://www.w3.org/2000/svg">
<g filter="url(#filter0_d_221_43)">
<path d="M62.5774 27.9924C62.9229 29.4695 63.1602 30.9888 63.2804 32.5415C63.0068 32.5604 62.7991 32.7965 62.8159 33.0707C62.8529 33.679 62.8717 34.2922 62.8717 34.91C62.8717 35.5278 62.8529 36.1411 62.8159 36.7493C62.7991 37.0236 63.0068 37.2597 63.2804 37.2786C63.1602 38.8312 62.9229 40.3506 62.5774 41.8276C62.3109 41.7629 62.0416 41.9251 61.9746 42.1916C61.6731 43.3896 61.2991 44.5583 60.8574 45.6925C60.7577 45.9485 60.8833 46.2367 61.138 46.3383C60.553 47.7692 59.8616 49.1441 59.0735 50.4531C58.8398 50.3096 58.5337 50.3813 58.3881 50.6143C57.7368 51.6564 57.0225 52.6544 56.2508 53.6026C56.0773 53.8157 56.1084 54.1285 56.3197 54.3034C55.329 55.48 54.2498 56.578 53.0925 57.5869C52.9141 57.3787 52.6008 57.3529 52.3907 57.53C51.4545 58.3189 50.4686 59.0494 49.4385 59.716C49.2079 59.8653 49.141 60.1724 49.2881 60.4039C47.9895 61.2134 46.6244 61.9241 45.2029 62.5259C45.0982 62.2725 44.8086 62.1504 44.5538 62.2531C43.4244 62.7086 42.2602 63.0945 41.0662 63.4055C40.8004 63.4748 40.6405 63.7454 40.7074 64.0113C39.2323 64.3686 37.7144 64.6141 36.1627 64.7385C36.1431 64.465 35.9066 64.2579 35.6324 64.2752C35.0246 64.3136 34.4117 64.333 33.7943 64.333C33.1768 64.333 32.5639 64.3136 31.9561 64.2752C31.6819 64.2579 31.4454 64.465 31.4259 64.7385C29.8742 64.6141 28.3562 64.3686 26.8811 64.0113C26.948 63.7454 26.7881 63.4748 26.5223 63.4055C25.3284 63.0945 24.1641 62.7086 23.0347 62.2531C22.7799 62.1504 22.4903 62.2725 22.3856 62.5259C20.9642 61.9241 19.599 61.2134 18.3004 60.4039C18.4475 60.1724 18.3807 59.8653 18.15 59.716C17.1199 59.0494 16.134 58.3189 15.1979 57.53C14.9878 57.3529 14.6744 57.3787 14.496 57.5869C13.3387 56.578 12.2595 55.48 11.2688 54.3034C11.4801 54.1285 11.5112 53.8157 11.3378 53.6026C10.566 52.6544 9.85176 51.6564 9.20043 50.6143C9.05482 50.3813 8.74871 50.3096 8.51498 50.4531C7.72697 49.1441 7.0355 47.7692 6.45056 46.3383C6.70527 46.2367 6.83085 45.9485 6.73114 45.6925C6.28944 44.5583 5.91538 43.3896 5.61396 42.1916C5.54693 41.9251 5.27761 41.7629 5.01113 41.8277C4.6656 40.3506 4.42828 38.8312 4.3081 37.2786C4.58171 37.2597 4.78939 37.0236 4.77267 36.7493C4.73561 36.1411 4.7168 35.5278 4.7168 34.91C4.7168 34.2922 4.73561 33.679 4.77267 33.0707C4.78939 32.7965 4.58171 32.5604 4.3081 32.5415C4.42828 30.9888 4.6656 29.4695 5.01113 27.9924C5.27761 28.0572 5.54693 27.895 5.61396 27.6285C5.91538 26.4305 6.28945 25.2618 6.73115 24.1276C6.83085 23.8716 6.70527 23.5834 6.45056 23.4818C7.0355 22.0509 7.72698 20.676 8.51499 19.367C8.74872 19.5104 9.05483 19.4388 9.20044 19.2058C9.85176 18.1636 10.566 17.1657 11.3378 16.2175C11.5112 16.0044 11.4801 15.6916 11.2688 15.5167C12.2595 14.3401 13.3388 13.2421 14.496 12.2331C14.6745 12.4414 14.9878 12.4671 15.1979 12.2901C16.1341 11.5011 17.1199 10.7706 18.15 10.104C18.3807 9.95479 18.4475 9.64763 18.3004 9.41619C19.599 8.6067 20.9642 7.89593 22.3856 7.29419C22.4903 7.54761 22.7799 7.66968 23.0347 7.56694C24.1641 7.11148 25.3284 6.72562 26.5223 6.41457C26.7881 6.34531 26.948 6.07472 26.8811 5.80883C28.3562 5.4515 29.8742 5.20597 31.4259 5.0816C31.4454 5.3551 31.6819 5.56219 31.9561 5.54488C32.5639 5.50653 33.1768 5.48706 33.7943 5.48706C34.4117 5.48706 35.0246 5.50653 35.6324 5.54488C35.9066 5.56219 36.1431 5.3551 36.1627 5.0816C37.7144 5.20597 39.2323 5.4515 40.7074 5.80883C40.6405 6.07472 40.8004 6.34531 41.0662 6.41457C42.2602 6.72562 43.4244 7.11148 44.5538 7.56694C44.8086 7.66969 45.0983 7.54761 45.2029 7.2942C46.6244 7.89593 47.9895 8.6067 49.2881 9.4162C49.141 9.64763 49.2079 9.9548 49.4385 10.1041C50.4686 10.7706 51.4545 11.5011 52.3907 12.2901C52.6008 12.4671 52.9141 12.4414 53.0925 12.2332C54.2498 13.2421 55.329 14.3401 56.3197 15.5167C56.1084 15.6916 56.0773 16.0044 56.2508 16.2175C57.0225 17.1657 57.7368 18.1636 58.3881 19.2058C58.5337 19.4388 58.8398 19.5105 59.0735 19.367C59.8616 20.676 60.553 22.0509 61.138 23.4818C60.8833 23.5834 60.7577 23.8716 60.8574 24.1276C61.2991 25.2618 61.6731 26.4305 61.9746 27.6285C62.0416 27.895 62.3109 28.0572 62.5774 27.9924Z" stroke="#9584FE" stroke-linecap="round" stroke-linejoin="round" stroke-dasharray="4 6"/>
</g>
<defs>
<filter id="filter0_d_221_43" x="0.216797" y="0.987061" width="67.1553" height="67.8459" filterUnits="userSpaceOnUse" color-interpolation-filters="sRGB">
<feFlood flood-opacity="0" result="BackgroundImageFix"/>
<feColorMatrix in="SourceAlpha" type="matrix" values="0 0 0 0 0 0 0 0 0 0 0 0 0 0 0 0 0 0 127 0" result="hardAlpha"/>
<feOffset/>
<feGaussianBlur stdDeviation="2"/>
<feColorMatrix type="matrix" values="0 0 0 0 0.340069 0 0 0 0 0.525901 0 0 0 0 0.983333 0 0 0 1 0"/>
<feBlend mode="normal" in2="BackgroundImageFix" result="effect1_dropShadow_221_43"/>
<feBlend mode="normal" in="SourceGraphic" in2="effect1_dropShadow_221_43" result="shape"/>
</filter>
</defs>
</svg>
