<svg width="39" height="39" viewBox="0 0 39 39" fill="none" xmlns="http://www.w3.org/2000/svg">
<circle cx="19.3595" cy="19.3673" r="18.0431" stroke="#8273F1" stroke-width="1.5"/>
<path d="M28.9446 25.0563C28.8881 24.9595 28.5381 24.1821 26.8541 22.5842C25.0912 20.9109 25.328 21.1826 27.4514 18.2895C28.7447 16.5275 29.2617 15.4515 29.0999 14.9915C28.946 14.553 27.9948 14.6687 27.9948 14.6687L24.832 14.6875C24.832 14.6875 24.5979 14.6552 24.4229 14.7615C24.2532 14.8664 24.144 15.1085 24.144 15.1085C24.144 15.1085 23.6427 16.4723 22.9744 17.6318C21.5654 20.0784 21.001 20.2075 20.7707 20.0555C20.2353 19.7018 20.3695 18.6325 20.3695 17.8739C20.3695 15.5026 20.7207 14.514 19.684 14.2584C19.3394 14.1737 19.0868 14.1172 18.2066 14.1078C17.0778 14.0957 16.1214 14.1118 15.5806 14.3822C15.2202 14.5624 14.9426 14.9646 15.1123 14.9874C15.3215 15.0157 15.7951 15.1179 16.0464 15.4676C16.3713 15.9182 16.3595 16.9323 16.3595 16.9323C16.3595 16.9323 16.5463 19.7233 15.924 20.0703C15.4964 20.3084 14.911 19.8228 13.6546 17.6022C13.0113 16.4656 12.5245 15.208 12.5245 15.208C12.5245 15.208 12.4311 14.974 12.264 14.8489C12.0614 14.6969 11.7772 14.6485 11.7772 14.6485L8.76971 14.6673C8.76971 14.6673 8.31846 14.6808 8.15269 14.8812C8.00534 15.0601 8.14085 15.4286 8.14085 15.4286C8.14085 15.4286 10.4958 21.0602 13.1612 23.8996C15.607 26.5022 18.3829 26.3314 18.3829 26.3314H19.6406C19.6406 26.3314 20.0208 26.2884 20.2142 26.0745C20.3932 25.8781 20.3866 25.5096 20.3866 25.5096C20.3866 25.5096 20.3616 23.7839 21.1457 23.5297C21.918 23.2795 22.9099 25.1976 23.9611 25.936C24.7557 26.4942 25.3596 26.3718 25.3596 26.3718L28.1711 26.3314C28.1711 26.3314 29.6419 26.2386 28.9446 25.0563Z" fill="#8273F1"/>
</svg>
